<svg width="1416" height="525" xmlns="http://www.w3.org/2000/svg"><g fill="none" fill-rule="evenodd"><path d="M619.832 498.704c-10.021-4.125-13.4 14.714-16.48 17.13-1.437 1.127-3.19.422-4.655-.645a9.13 9.13 0 0 0 1.31-2.474c7.896-10.661-16.03-38.796-16.03-38.796 13.058-13.256-.353-30.606-.353-30.606s-3.446-5.242-6.792-5.037c-3.346.205-4.783 5.473-4.783 5.473-5.153-.187-9.706.503-9.706.503s-4.432-5.826-8.257-4.544c-4.644 1.557-3.42 13.022-2.844 12.503 0 0-1.064 3.537-1.666 7.748-.452 3.157-4.035 4.102-1.905 10.79 1.927 6.053 13.603 6.804 13.603 6.804-.13-.427-1.08 25.117-.685 31.499.069 1.1-6.268 5.507.788 7.654.754.25 1.567.4 2.365.482.179.419.463.847.892 1.28 2.918 2.945 20.168 6.233 17.905 3.146 7.016.45 11.087-2.208 11.087-2.208l-.608-.184c.357-.141.703-.286 1.03-.44a19.874 19.874 0 0 0 7.566 3.584c9.268 2.183 11.647-17.213 14.54-15.904 6.839 4.08 13.699-3.634 3.678-7.758" fill="#FFF"/><path d="M588.463 482.27s-11.49-.078-13.24 3.7c-2.529 8.257 17.332 2.203 17.332 2.203l-4.092-5.903ZM595.472 491.27s-11.491-.08-13.241 3.699c-2.528 8.257 16.527 2.978 16.527 2.978l-3.286-6.677ZM566.207 502.27s11.244 2.252 10.223 6.385c-.66 2.67-10.55.345-10.55.345s-2.183-4.276.327-6.73M573.234 494.27s3.307 2.543 4.049 6.808c.844 4.849-7.779-2.175-9.283-2.278 2.797-2.266 5.234-4.53 5.234-4.53M569 513.772s8.306 2.05 12.04-.946c3.733-2.995-.227 7.081-2.626 6.965-3.865-.189-9.414-6.019-9.414-6.019M616.854 498.27s-5.143 4.864-1.622 8.303c5.16 1.039 10.015.116 7.325-3.834-2.69-3.951-5.703-4.47-5.703-4.47M607.35 504.27s-.885 5.2 3.81 5.153c2.403 1.635-.552 7.038-2.384 7.029-1.833-.01-4.48-4.22-3.603-6.18.876-1.96 2.177-6.002 2.177-6.002M598.415 516.27s-3.282 2.29-2.194 4.637c3.463 1.44 4.335 2.449 6.212 1.975 1.877-.473-1.706-1.797.284-5.851-2.924.548-4.302-.761-4.302-.761M586.424 478.355s-5.69 2.35-12.904 2.387c-4.325.022-3.103-7.727 3.823-7.466 6.926.26 5.345.898 9.08 5.08" fill="#D7F0FF"/><path d="M574.515 444.222c-6.401-.812-13.271.776-13.271.776s-4.431-5.826-8.256-4.544c-4.643 1.557-3.42 13.023-2.844 12.504 0 0-1.064 3.536-1.666 7.747-.451 3.158-3.792 5.273-1.905 10.79 2.409 7.042 13.604 6.804 13.604 6.804-.131-.427-1.08 25.117-.685 31.499.069 1.135-6.663 5.78 1.468 7.845" stroke="#2150B7" stroke-width="1.5" stroke-linecap="round" stroke-linejoin="round"/><path d="M597.883 513.882c10.854-9.594-14.979-39.964-14.979-39.964 13.056-13.256-.355-30.605-.355-30.605s-3.446-5.243-6.792-5.037c-3.347.205-4.757 4.92-4.757 4.92M566.925 511.36c1.345-.715-6.83 2.937-2.796 7.008 2.92 2.944 20.168 6.232 17.905 3.145 7.016.45 11.087-2.208 11.087-2.208" stroke="#2150B7" stroke-width="1.5" stroke-linecap="round" stroke-linejoin="round"/><path d="M572.74 494.27s-7.852 3.685-7.739 12.517c.101 7.887 7.805 9.932 7.805 9.932M595.038 512.428s4.549 5.976 7.628 3.56c3.08-2.416 6.458-21.255 16.48-17.13 10.021 4.124 3.161 11.838-3.678 7.758-2.894-1.31-5.272 18.086-14.541 15.905-6.548-1.542-9.927-5.782-9.927-5.782M568.355 488.27l-.355 9.157M573 474.569c.125-.466 5.614-1.935 7.796-.987" stroke="#2150B7" stroke-width="1.5" stroke-linecap="round" stroke-linejoin="round"/><path d="M563.426 449.521s10.884-1.715 14.592-1.13c3 .474 2.56 4.043-2.967 4.272-1.89.965.239 2.587.239 2.587s6.53-1.338 6.493 1.051c-.025 1.686-2.68 2.054-4.242 2.124a1.045 1.045 0 0 0-.998 1.151v.002c.053.506.464.896.97.931 1.59.113 6.746.42 5.103 3.008-1.03 1.62-2.348.99-7.294 1.485-4.946.496-7.792 3.41-9.221 1.392-1.722-2.43 3.158-3.687 5.18-4.626a1.15 1.15 0 0 0 .607-1.396 1.148 1.148 0 0 0-1.565-.7c-1.347.612-3.593 1.505-5.243 1.521-3.19.028-3.542-3.863 5.054-5.09 3.146-1.135-.067-2.579-.067-2.579s-3.288.437-5.79 1.19c-3.16.951-5.05-3.97-.851-5.193" fill="#D7F0FF"/><g><path fill="#FFF" d="M1075 456.27h38.837v42.303h-38.761z"/><path d="M1102.865 455.84c1.008.435-.424-9.042.698-10.674 2.471-3.593 19.014 6.102 18.507-18.255-.143-6.885.083-15.6-7.138-15.6-8.639 0-7.124 9.73-6.994 15.415.056 2.461-2.052 4.463-4.5 4.21a19.322 19.322 0 0 0-.08-.01c-3.163-.348-1.278-24.077 0-44.318 1.477-23.39-4.206-27.559-12.844-27.33-17.682.47-8.485 54.413-11.774 56.63-3.22 2.17-4.369-.343-4.928-14.035-.492-12.064-16.897-16.004-13.296 14.773 2.694 23.013 17.843 14.671 19.451 17.973 2.73 5.603 1.553 20.634 1.553 20.634l21.345.587Z" fill="#D7F0FF"/><path d="M1102.865 455.84c1.008.435-.424-9.042.698-10.674 2.471-3.593 19.014 6.102 18.507-18.255-.143-6.885.083-15.6-7.138-15.6-8.639 0-7.124 9.73-6.994 15.415.056 2.461-2.052 4.463-4.5 4.21a19.322 19.322 0 0 0-.08-.01c-3.163-.348-1.278-24.077 0-44.318 1.477-23.39-4.206-27.559-12.844-27.33-17.682.47-8.485 54.413-11.774 56.63-3.22 2.17-4.369-.343-4.928-14.035-.492-12.064-16.897-16.004-13.296 14.773 2.694 23.013 17.843 14.671 19.451 17.973 2.73 5.603 1.553 20.634 1.553 20.634l21.345.587Z" stroke="#2150B7"/><path stroke="#2150B7" stroke-width="1.5" stroke-linecap="round" stroke-linejoin="round" d="M1074 455.27h38.837v42.302h-38.76zM1075 463.27h22.152M1101 463.27h5.518"/><path d="M1081.52 455.253s1.176-15.03-1.553-20.634c-1.609-3.303-16.758 5.04-19.45-17.973-3.602-30.777 12.802-26.837 13.295-14.773.56 13.692 1.706 16.204 4.927 14.034 3.29-2.217-5.908-56.16 11.775-56.629 8.638-.229 14.32 3.94 12.843 27.33-1.278 20.241-3.163 43.97 0 44.318l.081.01c2.447.253 4.556-1.749 4.5-4.21-.13-5.685-1.646-15.415 6.994-15.415 7.221 0 6.994 8.714 7.137 15.6.507 24.357-16.036 14.662-18.507 18.255-1.12 1.632.31 11.108-.697 10.674M1092 375.27v80.148M1092 362.27v6.647" stroke="#2150B7" stroke-width="1.5" stroke-linecap="round" stroke-linejoin="round"/><path d="M1064.336 395.27s-.45 4.763-.308 10.678c.187 7.755 1.39 17.49 5.957 21.08 4.91 3.857 12.002 1.846 12.002 1.846M1097 449.27c.078 3.897.147 6.232.147 6.232M1097 439.27c.014 1.27.028 2.49.045 3.649M1094 359.27s6.475 4.063 4.221 28.126c-1.279 13.649-1.471 32.716-1.383 47.187M1085 377.27s.527 28.309.852 40.984c.325 12.676.318 37.085.318 37.085M1114.142 411.27s-.738 5.665-.477 12.967c.477 13.296-5.918 10.256-10.665 10.878" stroke="#2150B7" stroke-width="1.5" stroke-linecap="round" stroke-linejoin="round"/><path d="M1116.857 411.27s3.87 22.806-1.469 26.509c-3.967 2.75-12.388 2.402-12.388 2.402M1069 396.27s0 3.444 1.149 12.472c1.244 9.77 1.15 15.757 9.521 14.444" stroke="#2150B7" stroke-width="1.5" stroke-linecap="round" stroke-linejoin="round"/></g><g><path d="M1284.926 235.717c.681 10.391 40.866 2.899 73.504 4.145 33.76 1.29 25.027-23.865 27.16-41.884 1.723-14.541 6.552-37.858-1.046-46.137-7.397-8.06-17.414-6.037-17.414-6.037s-23.872.969-26.25 7.198-3.822 54.45-19.134 55.795c-15.313 1.343-38.415 2.546-36.82 26.92" fill="#FFF"/><path d="M1300.659 204.623s-1.338 9.625-14.363 21.482c-5.513 1.291-6.072-2.281-6.072-2.281l10.54-24.864s1.924-6.558 6.903-2.495c4.979 4.063 2.992 8.158 2.992 8.158" fill="#FFF"/><path d="M1300.659 204.623s-1.338 9.625-14.363 21.482c-5.513 1.291-6.072-2.281-6.072-2.281l10.54-24.864s1.924-6.558 6.903-2.495c4.979 4.063 2.992 8.158 2.992 8.158" stroke="#2150B7" stroke-width="1.2" stroke-linecap="round" stroke-linejoin="round"/><path d="M1328.81 205.415c3.084 7.451-.699 16.06-.699 16.06 11.703 1.813 27.11 2.064 24.761-13.747l-12.878-11.036-11.179 9.744" fill="#D7F0FF"/><path d="M1363.38 150.898s-4.012 8.848 5.118 13.817c7.786 4.238 3.157 14.75 6.934 17.172 5.477 1.333-.917 10.292-10.69 4.68 0 0-9.885-12.939-10.34-20.314-.453-7.377-2.093-16.886 2.529-15.798 4.62 1.09 6.449.443 6.449.443" fill="#2150B7"/><path d="M1364.315 152.515s-4.829 7.237 4.3 12.205c7.785 4.238 1.599 11.975 6.934 17.171 5.477 1.334-.967 10.805-10.74 5.193 0 0-10.4-13.448-10.854-20.823-.455-7.376-.555-16.894 4.066-15.806 4.62 1.089 6.294 2.06 6.294 2.06Z" stroke="#2150B7" stroke-width="1.2" stroke-linecap="round" stroke-linejoin="round"/><path d="M1332.133 194.966s-2.505-11.532-1.282-15.692c1.692-5.754 7.36-9.367 7.36-9.367s-1.81-3.326.483-5.203c2.295-1.877 13.093-4.377 14.671-2.471 1.31 1.58.183 3.24.947 4.695l5.404 3.67c3.754 3.9-5.805 22.198-5.805 22.198l-2.361 5.467s-18.787 2.976-19.417-3.297" fill="#D7F0FF"/><path d="m1282.797 215.061 9.04 4.92-8.356 12.732s4.462 5.94-8.35 7.51c-11.576 1.418-14.462-2.222-6.986-6.517 9.28-5.331 8.868-5.842 8.868-5.842l5.784-12.803Z" fill="#2F74EB"/><path d="m1282.797 215.061 9.04 4.92-8.356 12.732s4.462 5.94-8.35 7.51c-11.576 1.418-14.462-2.222-6.986-6.517 9.28-5.331 8.868-5.842 8.868-5.842l5.784-12.803Z" stroke="#2150B7" stroke-width="1.2" stroke-linecap="round" stroke-linejoin="round"/><path d="M1329.617 205.741c2.662-.167 7.712-4.082 7.712-4.082 9.956 3.624 16.982 9.89 25.822 8.983 6.966-.714.966-26.07.11-33.783-1.246-7.744-4.916-7.22-7.833-5.348-2.703 1.734-4.479 4.575-5.13 7.713-.836 4.036 1.82 7.434 4.622 10.942l-2.876 7.075-15.886-3.132-10.45 3.566 3.909 8.066Z" fill="#FFF"/><path d="M1354.397 188.604c-3.173-1.578-4.838-6.142-4-10.178.65-3.139 2.425-5.98 5.129-7.714 2.917-1.872 6.587-2.396 7.833 5.348.855 7.712 6.856 33.07-.11 33.783-8.84.907-15.867-5.358-25.823-8.982 0 0-5.05 3.914-7.713 4.082" stroke="#2150B7" stroke-width="1.2" stroke-linecap="round" stroke-linejoin="round"/><path stroke="#2150B7" stroke-width="1.2" stroke-linecap="round" stroke-linejoin="round" d="m1353.545 179.121 2.242 19.16-19.627-4.78-10.452 3.056M1352.858 208.365c2.35 15.811-13.844 15.56-25.548 13.747 0 0 3.79-7.586.705-15.038"/><path d="M1337.895 168.09s-12.044-2.838-9.406 16.216l.49 10.609" stroke="#2150B7" stroke-width="1.2" stroke-linecap="round" stroke-linejoin="round"/><path d="M1332.487 194.169s-1.998-12.558-.775-16.719c1.692-5.752 6.85-8.852 6.85-8.852s-.782-2.82 1.513-4.696c2.293-1.878 12.066-4.373 13.644-2.467 1.31 1.581.53 3.232 1.294 4.686l6.083 3.673M1355.308 191.9l-2.36 5.468" stroke="#2150B7" stroke-width="1.2" stroke-linecap="round" stroke-linejoin="round"/><path d="M1366.594 144.876s10.858-1.415 18.08 6.585c7.532 8.34 2.918 30.532 1.197 45.073-2.135 18.019 5.787 44.201-27.973 42.912-32.638-1.246-75.317 8.075-72.956-6.828" stroke="#2150B7" stroke-width="1.2" stroke-linecap="round" stroke-linejoin="round"/><path d="M1334.492 165.058c-6.473-2.012-12.342-6.514-12.768-17.46-.933-24.006 27.618-28.958 37.96-18.154 12.418 12.975 4.381 30.553-7.11 34.27 0 0-10.145 3.81-18.082 1.344" fill="#D7F0FF"/><path d="M1334.492 164.26c-6.474-2.012-12.342-6.514-12.768-17.46-.933-24.007 27.618-28.959 37.96-18.154 12.418 12.975 4.38 30.552-7.11 34.27 0 0-10.145 3.81-18.082 1.343Z" stroke="#2150B7" stroke-width="1.2" stroke-linecap="round" stroke-linejoin="round"/><path d="M1354.829 149.087c1.084 8.306-5.025 15.684-14.864 15.737-8.82.048-16.757-4.35-17.447-17.402-.408-7.708 7.44-12.179 16.262-12.226 8.821-.048 15.049 6.236 16.049 13.89" fill="#FFF"/><path d="M1354.829 149.087c1.084 8.306-5.025 15.684-14.864 15.737-8.82.048-16.757-4.35-17.447-17.402-.408-7.708 7.44-12.179 16.262-12.226 8.821-.048 15.049 6.236 16.049 13.89Z" stroke="#2150B7" stroke-width="1.2" stroke-linecap="round" stroke-linejoin="round"/><path d="M1343.254 150.27c.344 1.892-.235 3.58-1.292 3.771-1.056.191-2.192-1.188-2.535-3.08-.344-1.89.234-3.578 1.291-3.768 1.057-.192 2.192 1.187 2.536 3.078M1331.236 151.07c.344 1.891-.234 3.579-1.291 3.77-1.058.19-2.193-1.188-2.536-3.079-.344-1.891.235-3.579 1.292-3.77 1.056-.19 2.192 1.188 2.535 3.08" fill="#2150B7"/><path d="M1334.108 151.168s-3.346 4.62 1.185 4.595" stroke="#2150B7" stroke-width="1.2" stroke-linecap="round" stroke-linejoin="round"/><path d="M1352.502 141.996c-15.19 4.185-19.657-5.628-19.657-5.628s-12.329 4.708-10.968 14.876c-9.204-8.73-2.17-20.24 10.956-17.125 16.714-2.207 19.67 7.877 19.67 7.877" fill="#2150B7"/><path d="M1352.502 141.996c-15.19 4.185-19.657-5.628-19.657-5.628s-12.329 4.708-10.968 14.876c-9.204-8.73-2.17-20.24 10.956-17.125 16.714-2.207 19.67 7.877 19.67 7.877ZM1341.731 169.654s4.304 1.54 9.766-1.714" stroke="#2150B7" stroke-width="1.2" stroke-linecap="round" stroke-linejoin="round"/><path d="M1295.15 204.311c-1.234-.102-2.154-1.001-2.579-2.16-1.774-4.843-6.12-19.304-6.12-22.441 0-1.088.76-1.387 1.67-1.387 2.271 0 24.789.681 32.652 1.95a4.082 4.082 0 0 1 3.313 3.084l5.715 23.82-34.652-2.866Z" fill="#FFF"/><path d="M1295.15 204.311c-1.234-.102-2.154-1.001-2.579-2.16-1.774-4.843-6.12-19.304-6.12-22.441 0-1.088.76-1.387 1.67-1.387 2.271 0 24.789.681 32.652 1.95a4.082 4.082 0 0 1 3.313 3.084l5.715 23.82-34.652-2.866Z" stroke="#2150B7" stroke-width="1.2" stroke-linecap="round" stroke-linejoin="round"/><path d="M1328.454 221.739s-12.285-3.543-23.835-5.494c-8.244 3.452-14.514 5.299-32.514 10.09-4.34-1.736-3.123-5.346-3.123-5.346s25.704-14.926 31.856-15.378c8.018-.59 28.026.954 28.026.954s3.006 6.567-.41 15.174" fill="#FFF"/><path d="M1328.639 221.739s-11.519-2.55-24.087-5.125c-8.244 3.452-14.779 4.421-32.779 9.211-4.34-1.734-2.607-4.836-2.607-4.836s25.704-14.926 31.857-15.378c8.018-.59 28.025.954 28.025.954s3.006 6.567-.41 15.174Z" stroke="#2150B7" stroke-width="1.2" stroke-linecap="round" stroke-linejoin="round"/><path d="m1286.262 222.244-14.564 4.275s-2.62 7.337-9.909 2.098c-7.289-5.237-13.416-15.454-7.262-15.487 2.385-.013 14.119 5.952 14.119 5.952l13.549-6.417s1.91 1.907 2.778 4.118c.866 2.21 1.289 5.461 1.289 5.461" fill="#2F74EB"/><path d="m1286.262 222.244-14.564 4.275s-2.62 7.337-9.909 2.098c-7.289-5.237-13.416-15.454-7.262-15.487 2.385-.013 14.119 5.952 14.119 5.952l13.549-6.417s1.91 1.907 2.778 4.118c.866 2.21 1.289 5.461 1.289 5.461ZM1300.871 223.238s7.956-6.14 27.116-1.882M1345.737 222.057s7.786-2.08 15.15 1.463" stroke="#2150B7" stroke-width="1.2" stroke-linecap="round" stroke-linejoin="round"/><path d="M1348.14 221.43s11.95-6.483 20.56-2.886" stroke="#2150B7" stroke-width="1.2" stroke-linecap="round" stroke-linejoin="round"/><path d="m1302.813 190.241 4.94 3.727c.821.62 1.62-.766.809-1.38a7260.262 7260.262 0 0 1-4.94-3.727c-.823-.62-1.622.767-.809 1.38" fill="#2150B7"/><path d="M1303.831 193.938c1.288-1.358 2.784-2.499 4.072-3.857.709-.748-.423-1.879-1.133-1.13-1.288 1.359-2.784 2.5-4.072 3.858-.708.747.423 1.878 1.133 1.13" fill="#2150B7"/></g><g><path d="M941.34 478.696c0 2.445-1.867 4.427-4.17 4.427s-4.17-1.982-4.17-4.427c0-2.444 1.867-4.426 4.17-4.426s4.17 1.982 4.17 4.426M944.829 503.399c.77 2.32-.897 4.426-3.201 4.426-2.303 0-3.983-1.361-5.14-4.91-.756-2.325-.875-6.645 1.428-6.645s5.06 1.545 6.913 7.129M992.736 497.698c1.44-1.975 4.124-1.842 5.462.032 1.339 1.874 1.208 4.032-1.01 7.036-1.451 1.967-4.897 4.575-6.236 2.7-1.338-1.874-1.684-5.017 1.784-9.768M1009.073 480.754c0 2.444-4.285 2.429-6.588 2.429-2.304 0-5.485-1.601-5.485-4.046 0-2.445 3.181-2.867 5.485-2.867 2.303 0 6.588 2.04 6.588 4.484" fill="#FFF"/><path d="M977.551 485.346s5.567 2.915 4.32 9.719c-2.17 11.835-23.449 10.446-26.125 2.214-2.675-8.232 2.702-11.884 2.702-11.884s5.306-3.941 10.08-2.972c4.771.97 9.023 2.923 9.023 2.923" fill="#D7F0FF"/><path d="M977.551 485.346s5.567 2.915 4.32 9.719c-2.17 11.835-23.449 10.446-26.125 2.214-2.675-8.232 2.702-11.884 2.702-11.884s5.306-3.941 10.08-2.972c4.771.97 9.023 2.923 9.023 2.923Z" stroke="#2150B7" stroke-width="1.5" stroke-linecap="round" stroke-linejoin="round"/><path d="M958.843 478.49s-5.008 11.87 9.395 11.806c9.215-.043 11.808-5.954 10.056-11.852 0 0-3.183-3.875-10.94-5.031-7.755-1.156-8.511 5.077-8.511 5.077" fill="#D7F0FF"/><path d="M958.843 478.49s-5.008 11.87 9.395 11.806c9.215-.043 11.808-5.954 10.056-11.852 0 0-3.183-3.875-10.94-5.031-7.755-1.156-8.511 5.077-8.511 5.077Z" stroke="#2150B7" stroke-width="1.5" stroke-linecap="round" stroke-linejoin="round"/><path d="M965.426 478.764s-30.986-.972-29.365-24.624c1.726-22.256 26.373-24.531 32.623-33.87 3.207 3.282 5.46 5.995 8.798 7.865 16.327 9.14 20.13 17.485 20.157 26.839.038 12.347-7.58 23.79-32.213 23.79" fill="#D7F0FF"/><path d="M966.427 478.764s-30.987-.972-29.365-24.625c1.725-22.256 26.372-24.531 32.622-33.87 3.207 3.282 5.459 5.996 8.799 7.865 16.326 9.14 20.128 17.485 20.156 26.839.038 12.348-7.58 23.79-32.212 23.79Z" stroke="#2150B7" stroke-width="1.5" stroke-linecap="round" stroke-linejoin="round"/><path d="M979.924 450.226c.021 6.606-5.325 10.868-11.932 10.889-6.606.019-11.97-3.724-11.992-10.33-.02-6.607 5.32-11.495 11.925-11.515 6.606-.021 11.978 4.35 12 10.956" fill="#FFF"/><path d="M979.924 450.226c.021 6.606-5.325 10.868-11.932 10.889-6.606.019-11.97-3.724-11.992-10.33-.02-6.607 5.32-11.495 11.925-11.515 6.606-.021 11.978 4.35 12 10.956Z" stroke="#2150B7" stroke-width="1.5" stroke-linecap="round" stroke-linejoin="round"/><path d="M971.646 449.075a5.824 5.824 0 1 1-11.648.034 5.824 5.824 0 0 1 11.648-.034" fill="#2150B7"/><path d="M962 434.684s6.393-3.463 11.736.448M968 467.339s3.228 1.794 6.455-2.07M959.732 498.922l-14.813 7.114s-1.003-11.186-7.174-9.615c-3.849.98-1.027 13.478 5.483 11.276M976 500.74l13.104 5.332s.935-11.191 7.116-9.658c3.854.956 1.109 13.47-5.414 11.309M957.949 482.032l-17.01-1.676s-2.834 6.454-6.964 2.848c-4.13-3.606-1.246-10.588 3.703-8.577 2.376.965 3.249 2.793 3.249 2.793M933.927 474.094 926 441.27" stroke="#2150B7" stroke-width="1.5" stroke-linecap="round" stroke-linejoin="round"/><path fill="#2F74EB" d="m915 431.173 15.484-3.903 2.836 11.758-15.199 3.84z"/><path fill="#FFF" d="m926 428.34 5.641-1.07 2.836 11.758-5.357 1.007z"/><path stroke="#2150B7" stroke-width="1.5" stroke-linecap="round" stroke-linejoin="round" d="m915 431.173 15.484-3.903 2.836 11.758-15.199 3.84zM926 428.27l2.968 11.637M955.484 429.636s-5.909-11.694 5.854-15.366M978.002 430.208s-.395-13.54 9.61-10.491M979 480.624s5.45 6.818 12.476 3.565c5.441-2.52 2.932-6.343 7.47-7.7 4.537-1.354 14.802 3.884 8.635 6.407-6.168 2.525-8.622-2.33-8.622-2.33"/></g><g><path d="M820.931 449.037c2.175 2.456 1.56 6.555-1.377 9.154-2.935 2.6-7.079 2.718-9.254.263-2.175-2.456-1.558-6.555 1.377-9.154 2.936-2.601 7.078-2.718 9.254-.263" fill="#2150B7"/><path d="M820.931 449.037c2.175 2.456 1.56 6.555-1.377 9.154-2.935 2.6-7.079 2.718-9.254.263-2.175-2.456-1.558-6.555 1.377-9.154 2.936-2.601 7.078-2.718 9.254-.263Z" stroke="#2150B7" stroke-width="1.5" stroke-linecap="round" stroke-linejoin="round"/><path d="M769.77 506.477s-19.137-8.276-20.414-12.988c-1.08-3.981-7.471-25.02-8.201-28.199-.297-1.289-7.762-7.821-3.372-9.747 4.389-1.926 12.183 6.956 12.183 6.956l9.046 27.025s10.756 4.464 20.037 9.533c10.284-1.728 12.278.541 12.278.541s4.028 11.98-1.262 21.04l-42.391-1.567-41.898-8.794s-10.05 4.924-11.55 1.676c-1.796-3.894 7.594-8.497 10.61-9.856a3.554 3.554 0 0 1 1.863-.29l40.638 4.555 25.815.185" fill="#FFF"/><path d="M766.477 503.983c1.685-7.124 6.053-8.713 6.053-8.713l7.06 3.72s11.148-2.645 13.744 2.349c1.722 3.996-1.154 19.187-2.729 19.232-9.717.607-25.952-.931-25.952-.931-2.982-5.385-1.02-12.784-1.02-12.784l9.005-.327-6.16-2.546ZM706.45 509.282c1.03-3.741 1.03-8.012 1.03-8.012s-15.49 4.767-13.26 8.925c2.722 5.08 12.23-.913 12.23-.913M741.894 465.775c6.41 1.006 7.948-1.331 7.948-1.331l.38-1.905s-8.436-9.044-12.183-6.956c-3.75 2.087 3.855 10.192 3.855 10.192" fill="#2F74EB"/><path d="M822.303 489.084c-.202.055-6.978 6.717-28.876 9.672-5.722 2.413-5.182 21.084-2.396 21.298 4.391.337 34.364 2.293 51.864-9.078 0 0 3.4 6.603 7.926 8.877 0 0 5.817-2.743 4.846-13.754-.97-11.012-3.029-28.116-15.794-24.28-12.764 3.837-17.57 7.265-17.57 7.265" fill="#D7F0FF"/><path d="M822.303 489.084c-.202.055-9.76 7.208-28.876 9.673-5.722 2.413-5.182 21.084-2.396 21.297 4.391.338 38.196 2.866 51.864-8.504 0 0 4.895 7.027 9.423 9.3 0 0 4.32-3.74 3.35-14.75-.97-11.013-3.03-28.117-15.795-24.28-12.764 3.837-17.57 7.264-17.57 7.264M820.562 518.946 812 503.27" stroke="#2150B7" stroke-width="1.5" stroke-linecap="round" stroke-linejoin="round"/><path d="M791.923 499.598s-1.993-2.269-12.277-.541c-9.282-5.069-20.037-9.533-20.037-9.533l-9.046-27.025s-7.794-8.882-12.184-6.956c-4.39 1.926 3.075 8.458 3.372 9.747.731 3.179 7.122 24.218 8.201 28.199 1.278 4.712 20.415 12.988 20.415 12.988" stroke="#2150B7" stroke-width="1.5" stroke-linecap="round" stroke-linejoin="round"/><path d="m790.505 520.247-42.391-1.567-41.898-8.793s-9.436 4.588-11.549 1.674c-3.363-4.634 6.921-8.854 10.158-10.041a4.149 4.149 0 0 1 1.884-.224l40.65 4.555 26.233.305s4.36-5.26 10.971-3.638" stroke="#2150B7" stroke-width="1.5" stroke-linecap="round" stroke-linejoin="round"/><path d="M708.03 502.27s0 3.777-1.03 7.556M750.948 464.27s-1.537 2.337-7.948 1.33" stroke="#2150B7" stroke-width="1.5" stroke-linecap="round" stroke-linejoin="round"/><path d="M856.742 496.454s7.556-6.421 4.8-8.184c-5.556 2.49-5.467 3.038-10.642 3.822-1.97.299-2.416 6.18-2.833 12.566-.519 7.967 1.937 18.387 8.528 18.067 11.754-.571.147-26.271.147-26.271" fill="#FFF"/><path d="M856.742 496.454s7.556-6.421 4.8-8.184c-5.556 2.49-5.467 3.038-10.642 3.822-1.97.299-2.416 6.18-2.833 12.566-.519 7.967 1.937 18.387 8.528 18.067 11.754-.571.147-26.271.147-26.271Z" stroke="#2150B7" stroke-width="1.5" stroke-linecap="round" stroke-linejoin="round"/><path d="M866.096 478.021s3.265-16.099-7.99-25.594c-10.756-9.073-34.84-5.52-42.313 5.544-7.47 11.064-4.276 27.016 12.891 34.576 14.745 6.494 38.311-.114 37.412-14.526" fill="#2150B7"/><path d="M848.825 493.798c11.697-1.263 21.223-6.33 18.038-24.233-1.37-7.688-9.084-16.515-14.226-15.156-.67.176-.117 7.552-8.279 12.475-8.84 5.333-16.921 5.79-16.756 8.794.648 11.786 6.522 19.708 21.223 18.12Z" fill="#FFF"/><path d="M854.234 471.27s6.555 6.072-.234 7.303M853.11 482.107s-3.638.227-6.11-1.837M843 471.27s.521 2.939 2.336 2.957c2.571.023 2.965-2.957 2.965-2.957M859 470.769s.521 2.94 2.337 2.957c2.571.023 2.466-3.456 2.466-3.456" stroke="#2150B7" stroke-width="1.5" stroke-linecap="round" stroke-linejoin="round"/><path d="M866.215 478.515s3.265-16.1-7.99-25.595c-10.757-9.072-34.368-6.888-41.84 4.175-7.472 11.065-6.343 27.028 10.824 34.588 14.744 6.493 38.292 1.706 39.006-13.168Z" stroke="#2150B7" stroke-width="1.5" stroke-linecap="round" stroke-linejoin="round"/><path d="M846 447.854s1.134-13.045 9.692-10.17M829.182 450.049s-2.763-10.59.158-12.817c2.92-2.23 5.446-1.951 5.446-1.951" stroke="#2150B7" stroke-width="1.5" stroke-linecap="round" stroke-linejoin="round"/><path d="M834.415 519.198s6.461-23.672 1.578-26.249c-4.252-2.243-10.275-3.75-12.342-6.255-2.067-2.504-2.414 6.711 5.147 10.871-3.509 6.726-9.572 18.991-7.303 22.836 3.901 6.608 11.361 3.728 12.92-1.203" fill="#FFF"/><path d="M834.415 519.198s6.461-23.672 1.578-26.249c-4.252-2.243-10.275-3.75-12.342-6.255-2.067-2.504-2.414 6.711 5.147 10.871-3.509 6.726-9.572 18.991-7.303 22.836 3.901 6.608 11.361 3.728 12.92-1.203ZM764.633 506.27s-1.962 7.399 1.02 12.784M772.053 495.27s-4.368 1.589-6.053 8.713" stroke="#2150B7" stroke-width="1.5" stroke-linecap="round" stroke-linejoin="round"/></g><g><path d="M1400.178 477.999c0 2.35-9.293 4.256-20.758 4.256s-20.759-1.906-20.759-4.256c0-2.351 9.294-4.256 20.759-4.256s20.758 1.905 20.758 4.256" fill="#FFF"/><path d="M1400.178 477.999c0 2.35-9.293 4.256-20.758 4.256s-20.759-1.906-20.759-4.256c0-2.351 9.294-4.256 20.759-4.256s20.758 1.905 20.758 4.256Z" stroke="#2150B7" stroke-width="1.35" stroke-linecap="round" stroke-linejoin="round"/><path d="m1358.992 449.443 9.195 8.622s6.402-.39 6.416 1.19c.06 6.606-8.04 20.884-9.245 17.654-1.206-3.231-.725-13.19-.725-13.19l-11.376-6.778s.84-4.943 5.735-7.498" fill="#2F74EB"/><path d="m1358.992 449.443 9.195 8.622s6.402-.39 6.416 1.19c.06 6.606-8.04 20.884-9.245 17.654-1.206-3.231-.725-13.19-.725-13.19l-11.376-6.778s.84-4.943 5.735-7.498Z" stroke="#2150B7" stroke-width="1.35" stroke-linecap="round" stroke-linejoin="round"/><path d="M1374.041 437.598s20.009 1.587 21.846-3.463c2.367-6.506-3.536-8.992-3.536-8.992l-22.933.296s-6.563 4.45-5.155 8.696c1.407 4.247 9.778 3.463 9.778 3.463" fill="#FFF"/><path d="M1374.041 437.598s19.113 1.44 21.311-3.463c3.334-7.433-3-8.992-3-8.992l-22.934.296s-6.563 4.45-5.155 8.696c1.407 4.247 9.778 3.463 9.778 3.463Z" stroke="#2150B7" stroke-width="1.35" stroke-linecap="round" stroke-linejoin="round"/><path d="M1355.959 314.3s17.871-2.993 24.374-10.214c5.922-6.574 5.815-13.943 5.815-13.943" stroke="#2150B7" stroke-width="3.6" stroke-linecap="round" stroke-linejoin="round"/><path d="M1374.589 293.743s3.934 15.132-5.12 25.057M1366.546 300.943s1.668 5.48-.68 10.65" stroke="#2150B7" stroke-width="3.6" stroke-linecap="round" stroke-linejoin="round"/><path fill="#FFF" d="m1264.435 412.95-11.673 69.286h3.325l14.865-69.286"/><path stroke="#2150B7" stroke-width="1.35" stroke-linecap="round" stroke-linejoin="round" d="m1264.435 412.95-11.673 69.286h3.325l14.865-69.286"/><path fill="#FFF" d="m1288.44 413.904-11.737 68.614h4.306l14.67-69.17"/><path stroke="#2150B7" stroke-width="1.35" stroke-linecap="round" stroke-linejoin="round" d="m1288.44 413.904-11.737 68.614h4.306l14.67-69.17"/><path fill="#FFF" d="m1331.147 411.818 11.728 70.121h-3.852l-14.588-70.296z"/><path stroke="#2150B7" stroke-width="1.35" stroke-linecap="round" stroke-linejoin="round" d="m1331.147 411.818 11.728 70.121h-3.852l-14.588-70.296z"/><path fill="#FFF" d="m1309.53 411.818 10.579 70.121h-3.851l-13.44-70.296z"/><path stroke="#2150B7" stroke-width="1.35" stroke-linecap="round" stroke-linejoin="round" d="m1309.53 411.818 10.579 70.121h-3.851l-13.44-70.296z"/><path d="m1353.471 442.311-2.086-3.43 7.095-4.546s-4.671 7.066-5.433 10.278c-1.595 6.731-11.108 21.528-11.108 21.528l6.277 6.17s6.37-5.233 10.978-10.57c4.608-5.338 7.258-13.985 7.258-13.985s12.474-14.194 19.73-19.724c11.57-6.831 5.986-16.56 5.986-16.56l-34.224-.73-.594 5.27-.55.728s-20.153 9.959-21.41 18.547c-1.825 7.665 13.904 17.017 13.904 17.017" fill="#D7F0FF"/><path d="M1397.257 392.049s-9.164 1.94-15.243 4.612c-5.22 2.294-4.861 9.082-.949 11.468 3.914 2.386 18.815 3.33 24.079-3.152 9.99-11.043-5.868-41.815-5.868-41.815s-4.075-3.422-18.798-5.272c-14.724-1.848-28.63 7.269-28.63 7.269s-8.682 6.596-14.99 28.091c-4.497 15.328 13.705 14.023 13.705 14.023s5.704 9.35 16.648 9.1c13.29-.303 20.391-2.617 25.158-6.365" fill="#FFF"/><path d="M1403.623 370.046s5.175-8.874.535-12.184c-4.64-3.31-2.837-3.011-3.974-6.62-2.3-5.645-9.115-6.84-9.115-6.84s-8.104-.583-14.818 0c-6.715.582-18.545 5.535-18.545 5.535s-14.586 10.74-2.095 16.209c6.154 5.515 10.16 11.403 10.16 11.403s25.2-19.147 34.407-14.08l3.445 6.577Z" fill="#FFF"/><path d="M1374.637 326.163c19.804 4.64 14.418-15.32 14.418-15.32s-1.555 1.222-55.721 21.679c-6.066 13.53 24.671 13.944 24.671 13.944l-.983 13.46 8.742 11.661s19.232-17.235 26.815-20.121l-8.238-25.02" fill="#D7F0FF"/><path d="M1241.657 477.999c0 2.35-9.293 4.256-20.759 4.256-11.463 0-20.758-1.905-20.758-4.256s9.295-4.256 20.758-4.256c11.466 0 20.76 1.905 20.76 4.256" fill="#FFF"/><path d="M1242.56 477.999c0 2.35-9.295 4.256-20.76 4.256-11.464 0-20.759-1.906-20.759-4.256 0-2.351 9.295-4.256 20.76-4.256 11.464 0 20.758 1.905 20.758 4.256Z" stroke="#2150B7" stroke-width="1.35" stroke-linecap="round" stroke-linejoin="round"/><path d="M1225.623 432.343v43.914s-1.939 1.078-3.952 1.078-3.517-1.078-3.517-1.078v-43.359l7.47-.555ZM1211.452 430.414s9.904 2.433 22.385-.597c0 0 2.628-.838 0-6.366-2.627-5.528-22.437-3.388-23.15-2.853-.715.534-3.466 8.22.765 9.816" fill="#FFF"/><path d="M1243.053 411.64s13.033 16.336 11.748 23.662c-1.284 7.327-10.933 15.986-10.933 15.986l-7.586-7.035 4.17-7.555s1.153-1.276-12.31-11.966c-4.38 2.18-12.906.309-12.906.309l-11.248 12.307 3.5 5.707-7.538 8.448s-12.414-6.6-13.278-13.188c-.864-6.588 12.081-23.723 12.081-23.723l-.178-50.65h34.929l9.55 47.699Z" fill="#FFF"/><path d="M1243.053 411.64s13.033 16.336 11.748 23.662c-1.284 7.327-10.933 15.986-10.933 15.986l-7.586-7.035 4.17-7.555s1.153-1.276-12.31-11.966c-4.38 2.18-12.906.309-12.906.309l-11.248 12.307 4.034 6.243-8.072 7.912s-12.414-6.6-13.278-13.188c-.864-6.588 12.081-23.723 12.081-23.723l-.178-50.65h34.929l9.55 47.699Z" stroke="#2150B7" stroke-width="1.35" stroke-linecap="round" stroke-linejoin="round"/><path d="M1197.622 394.76s-10.528 6.59-17.84 6.59c-9.37 0-16.995-9.3-18.748-14.383-1.754-5.083 1.24-7.033 3.905-9.497 5.029-4.652 11.127 4.72 12.346 5.512 2.284 1.488 3.834-.342 6.64-5.098 4.356-7.384 6.962-7.641 6.962-7.641s10.703.668 15.148 1.8c4.444 1.132 3.909 4.163 3.909 7.73s.196 34.909.196 34.909-8.048 1.648-15.195-2.317c-3.87-2.145-2.348-14.238-2.348-14.238M1244.696 391.944c1.766 1.031 9.172 4.535 13.791 3.179 15.705-4.228 11.065-18.112 5.097-16.94-3.389 1.776-8.054 2.056-14.764-3.41-4.076-3.32-7.859-4.683-7.859-4.683s-4.176-2.03-8.52-1.583c-6.765.696-5.098 8.938-5.098 8.938.983 9.474 2.825 36.248 2.825 36.248s5.24 1.574 11.763-1.189c6.524-2.762 1.062-32.269 1.062-32.269" fill="#FFF"/><path d="M1194.945 396.363s-7.852 4.986-15.162 4.986c-9.37 0-16.996-9.3-18.749-14.382-1.754-5.083 1.24-7.033 3.906-9.498 5.028-4.651 11.127 4.72 12.345 5.513 2.285 1.488 3.834-.342 6.64-5.098 4.356-7.384 6.963-7.641 6.963-7.641s10.702.668 15.147 1.8c4.444 1.13 4.444 4.163 4.444 7.729 0 3.567-.338 34.91-.338 34.91s-8.049 1.648-15.196-2.317c-3.87-2.145-2.348-14.24-2.348-14.24M1244.696 391.944c1.766 1.032 6.355 3.276 13.791 3.179 15.437-2.322 11.065-18.112 5.097-16.941-3.389 1.776-8.054 2.057-14.764-3.408-4.076-3.321-7.859-4.684-7.859-4.684s-4.176-2.03-8.52-1.583c-6.765.696-5.098 8.938-5.098 8.938.983 9.475 2.29 35.714 2.29 35.714s5.774 1.572 12.298-1.19c6.524-2.761 1.062-31.734 1.062-31.734M1234.366 385.177l3.931-.534" stroke="#2150B7" stroke-width="1.35" stroke-linecap="round" stroke-linejoin="round"/><path d="M1238.237 363.173c3.614-8.64 6.754-22.372 5.654-25.66-1.69-5.054-6.843-2.393-9.632-5.7-4.13-5.99-19.189-13.37-33.428-3.671-14.24 9.7-8.592 31.25-8.592 31.25s10.166 5.375 22.48 6.49c12.314 1.115 23.518-2.71 23.518-2.71" fill="#D7F0FF"/><path d="M1210.949 364.597s3.921-24.032 19.184-24.897c11.893-.674 13.626-1.857 13.626-1.857s-2.776 23.01-7.578 26.754c-10.866 1.784-25.232 0-25.232 0" fill="#FFF"/><path d="M1191.338 358.492s-5.648-21.55 8.593-31.25c14.24-9.7 29.298-2.318 33.428 3.67 2.788 3.308 7.942.647 9.633 5.703 1.098 3.286-2.041 17.02-5.656 25.658" stroke="#2150B7" stroke-width="1.35" stroke-linecap="round" stroke-linejoin="round"/><path d="M1237.954 347.273s-5.61 11.34-12.634 7.258c-5.438-3.16-.862-11.288-.862-11.288-1.227.314 4.793 5.546 13.496 4.03" fill="#BBE2FF"/><path d="M1242.012 338.61c-9.488.427-4.57-4.828-4.57-4.828s3.572-1.403 4.57.805c.998 2.208 0 4.023 0 4.023M1340.026 336.035c0 2.48-1.675 4.492-3.743 4.492-2.067 0-3.742-2.011-3.742-4.492 0-2.482 1.675-4.492 3.742-4.492 2.068 0 3.743 2.01 3.743 4.492" fill="#2150B7"/><path d="M1241.346 345.832c-8.058 5.111-16.888-2.59-16.888-2.59s-4.576 8.129.862 11.29c7.024 4.08 12.634-7.26 12.634-7.26" stroke="#2150B7" stroke-width="1.35" stroke-linecap="round" stroke-linejoin="round"/><path d="M1222.74 378.258s3.859 28.144 1.357 31.776c-2.502 3.632-18.368 2.796-17.627-2.993.742-5.79 2.294-30.448 2.294-30.448s.032-6.048 6.93-4.199c6.896 1.85 7.045 5.864 7.045 5.864" fill="#D7F0FF"/><path d="M1190.966 358.543s22.477 10.72 47.733 4.364c3.498-.145.118 3.48 1.88 4.396 1.76.918 4.264 5.507-7.698 8.743-11.961 3.237-36.33.058-43.872-6.388-3.373-3.142.094-4.648 0-6.464-.092-1.817-1.113-4.247 1.957-4.651" fill="#D7F0FF"/><path d="M1190.966 358.543s22.477 10.72 47.733 4.364c3.498-.145.118 3.48 1.88 4.396 1.76.918 4.264 5.507-7.698 8.743-11.961 3.237-36.33.058-43.872-6.388-3.373-3.142.094-4.648 0-6.464-.092-1.817-1.113-4.247 1.957-4.651Z" stroke="#2150B7" stroke-width="1.35" stroke-linecap="round" stroke-linejoin="round"/><path d="M1209.275 377.443s-2.854 22.975-2.83 30.447c.021 5.836 15.125 6.625 17.628 2.992 2.502-3.632-.822-32.31-.822-32.31" stroke="#2150B7" stroke-width="1.35" stroke-linecap="round" stroke-linejoin="round"/><path d="M1166.287 377.746s-.562-9.758-3.582-9.287c-3.018.47-2.214 4.635-2.214 4.635s-8.855-2.44-12.449-.43c-3.595 2.01 2.489 9.712 12.45 10.982 0 0 6.745.07 5.795-5.9" fill="#FFF"/><path d="M1166.287 377.746s-.562-9.758-3.582-9.287c-3.018.47-2.214 4.635-2.214 4.635s-8.855-2.44-12.449-.43c-3.595 2.01 2.489 9.712 12.45 10.982 0 0 6.745.07 5.795-5.9Z" stroke="#2150B7" stroke-width="1.35" stroke-linecap="round" stroke-linejoin="round"/><path d="m1197.438 449.274 11.481 9.765s.444 8.62 2.76 9.301c2.316.681 6.053-6.27 5.783-9.157-.268-2.887-11.062-17.84-11.062-17.84l-8.962 7.931Z" fill="#2F74EB"/><path d="m1197.438 449.274 11.481 9.765s.444 8.62 2.76 9.301c2.316.681 6.053-6.27 5.783-9.157-.268-2.887-11.062-17.84-11.062-17.84l-8.962 7.931Z" stroke="#2150B7" stroke-width="1.35" stroke-linecap="round" stroke-linejoin="round"/><path d="M1237.102 442.243s-9.957 14.754-9.941 16.767c.015 2.013 3.485 10.814 6.187 9.217 2.702-1.598 1.907-9.069 1.907-9.069l9.716-8.683-7.87-8.232Z" fill="#2F74EB"/><path d="M1237.102 442.243s-9.957 14.754-9.941 16.767c.015 2.013 3.485 10.814 6.187 9.217 2.702-1.598 1.907-9.069 1.907-9.069l9.716-8.683-7.87-8.232ZM1210.949 430.24s9.904 2.433 22.385-.597M1218.154 432.898v43.36s1.504 1.077 3.517 1.077 3.952-1.078 3.952-1.078v-43.914" stroke="#2150B7" stroke-width="1.35" stroke-linecap="round" stroke-linejoin="round"/><path d="M1228.388 326.65c6.091-2.136 6.6-13.496-1.779-12.087-4.693.79-7.413 1.842-13.944 1.724-7.98-.143-15.46-.357-21.218 7.558-5.755 7.915-1.503 18.538-1.503 18.538s.086 0 7.404-8c3.196-11.865 31.04-7.734 31.04-7.734" fill="#2150B7"/><path d="M1228.388 326.65c6.091-2.136 6.6-13.496-1.779-12.087-4.693.79-7.413 1.842-13.944 1.724-7.98-.143-15.46-.357-21.218 7.558-5.755 7.915-1.503 18.538-1.503 18.538s.086 0 7.404-8c3.196-11.865 31.04-7.734 31.04-7.734Z" stroke="#2150B7" stroke-width="1.35" stroke-linecap="round" stroke-linejoin="round"/><path d="M1269.118 408.79h60.13l8.458-30.447h-40.898l-7.08 23.997h-20.61a3.225 3.225 0 1 0 0 6.45" fill="#FFF"/><path d="M1269.118 408.79h60.13l8.458-30.447h-40.898l-7.08 23.997h-20.61a3.225 3.225 0 1 0 0 6.45Z" stroke="#2150B7" stroke-width="1.35" stroke-linecap="round" stroke-linejoin="round"/><path d="M1252.961 407.143h97.982c1.813 0 3.283 1.287 3.283 2.873 0 1.587-1.47 2.874-3.283 2.874h-97.982c-1.813 0-3.283-1.287-3.283-2.874 0-1.586 1.47-2.873 3.283-2.873" fill="#FFF"/><path d="M1252.961 407.143h97.982c1.813 0 3.283 1.287 3.283 2.873 0 1.587-1.47 2.874-3.283 2.874h-97.982c-1.813 0-3.283-1.287-3.283-2.874 0-1.586 1.47-2.873 3.283-2.873Z" stroke="#2150B7" stroke-width="1.35"/><path d="M1374.637 326.163c19.804 4.64 14.418-15.32 14.418-15.32s-1.555 1.222-55.721 21.679c-6.066 13.53 24.671 13.944 24.671 13.944l-.983 13.46" stroke="#2150B7" stroke-width="1.35" stroke-linecap="round" stroke-linejoin="round"/><path d="M1395.03 352.243c-11.616.505-29.632 20.85-29.632 20.85l-9.44-13.358" stroke="#2150B7" stroke-width="1.35" stroke-linecap="round" stroke-linejoin="round"/><path d="M1357.705 350.443s-14.584 10.74-2.095 16.209c7.3 7.033 10.16 11.404 10.16 11.404s25.982-21.815 37.085-14.08" stroke="#2150B7" stroke-width="1.35" stroke-linecap="round" stroke-linejoin="round"/><path d="M1351.691 364.843s-9.315 6.42-14.989 28.091c-3.876 14.809 13.705 14.023 13.705 14.023" stroke="#2150B7" stroke-width="1.35" stroke-linecap="round" stroke-linejoin="round"/><path d="M1342.449 391.312s7.677-2.525 10.705 5.629" stroke="#2150B7" stroke-width="1.35" stroke-linecap="round" stroke-linejoin="round"/><path fill="#FFF" d="M1360.462 384.643h15.683l-2.527 26.213h-10.554z"/><path stroke="#2150B7" stroke-width="1.35" stroke-linecap="round" stroke-linejoin="round" d="M1360.462 384.643h15.683l-2.527 26.213h-10.554z"/><path d="m1379.185 396.72-4.052-2.177s2.07 4.525-8.137 5.051c-4.112.214-4.585 7.47 3.083 9.138 11.47 2.496 16.463-6.856 9.106-12.012" fill="#FFF"/><path d="m1379.185 396.72-4.052-2.177s2.07 4.525-8.137 5.051c-4.112.214-4.585 7.47 3.083 9.138 11.47 2.496 16.463-6.856 9.106-12.012ZM1354.07 381.043l-.813 16.058" stroke="#2150B7" stroke-width="1.35" stroke-linecap="round" stroke-linejoin="round"/><path d="M1353.257 410.1s.758 5.032 14.18 5.572c10.697.431 20.392-2.083 25.158-5.83M1391.776 411.643s4.315 10.307-5.986 16.558c-7.255 5.531-19.729 19.725-19.729 19.725s-2.65 8.647-7.259 13.985c-4.608 5.337-11.512 10.57-11.512 10.57l-5.742-6.17s9.513-14.796 11.108-21.528c1.596-6.73 13.725-20.426 13.725-20.426" stroke="#2150B7" stroke-width="1.35" stroke-linecap="round" stroke-linejoin="round"/><path d="m1357.714 416.143-.549.727s-19.618 10.494-20.875 19.083c-1.825 7.663 14.03 16.378 14.03 16.378" stroke="#2150B7" stroke-width="1.35" stroke-linecap="round" stroke-linejoin="round"/><path stroke="#2150B7" stroke-width="1.35" stroke-linecap="round" stroke-linejoin="round" d="m1361.108 431.443-9.653 7.192 2.622 2.895M1359.562 422.443s1.035 5.52 3.043 5.89"/><path d="M1255.611 297.948s-2.228 31.064 2.463 34.445c5.308 3.827 17.275 3.386 22.865 3.098a1.286 1.286 0 0 1 1.268 1.752c-1.146 2.947-3.642 8.72-6.87 12.482 8.109-2.147 15.009-10.84 18.78-14.121 2.899-2.524 15.286-.421 19.5-3.222 4.215-2.802 7.772-38.116-1.244-41.908-4.735-1.991-39.89-1.022-46.72-.802-10.152.328-10.042 8.276-10.042 8.276" fill="#FFF"/><path d="M1255.611 297.948s-2.228 31.064 2.463 34.445c5.308 3.827 17.275 3.386 22.865 3.098a1.286 1.286 0 0 1 1.268 1.752c-1.146 2.947-3.642 8.72-6.87 12.482 8.109-2.147 15.009-10.84 18.78-14.121 2.899-2.524 15.286-.421 19.5-3.222 4.215-2.802 7.772-38.116-1.244-41.908-4.735-1.991-39.89-1.022-46.72-.802-10.152.328-10.042 8.276-10.042 8.276Z" stroke="#2150B7" stroke-width="1.35" stroke-linecap="round" stroke-linejoin="round"/><path d="M1287.695 316.203c2.697-5.22 12.528-2.902 12.528-2.902l3.923-15.057s-12.37-.3-17.012 10.507c-5.424 12.629 6.345 17.6 6.345 17.6l3.147-6.09s-5.463-1.166-6.74-4.03" fill="#D7F0FF"/><path d="M1283.855 317.36c-2.614-5.262-12.48-3.1-12.48-3.1l-3.683-15.117s12.372-.104 16.84 10.775c5.225 12.713-6.622 17.497-6.622 17.497l-3.05-6.139s5.482-1.08 6.803-3.922" fill="#D7F0FF"/><path d="M1287.71 316.428c2.626-5.257 12.488-3.075 12.488-3.075l3.713-15.11s-12.371-.129-16.863 10.741c-5.248 12.703 6.587 17.512 6.587 17.512l3.063-6.134s-5.478-1.09-6.796-3.936" stroke="#2150B7" stroke-width="1.35" stroke-linecap="round" stroke-linejoin="round"/><path d="M1283.206 317.136c-2.687-5.225-12.522-2.928-12.522-2.928l-3.893-15.065s12.371-.274 16.99 10.543c5.398 12.64-6.38 17.587-6.38 17.587l-3.135-6.097s5.466-1.155 6.749-4.016" stroke="#2150B7" stroke-width="1.35" stroke-linecap="round" stroke-linejoin="round"/><path d="M1264.63 377.872s2.383-6.368 4.675-5.792c2.292.576 1.46 4.126 1.46 4.126s6.132-2.659 9.2-.571c2.891 1.967-3.123 10.818-10.806 10.249 0 0-7.037.127-4.53-8.012" fill="#FFF"/><path d="M1264.63 377.872s2.383-6.368 4.675-5.792c2.292.576 1.46 4.126 1.46 4.126s6.132-2.659 9.2-.571c2.891 1.967-3.123 10.818-10.806 10.249 0 0-7.037.127-4.53-8.012Z" stroke="#2150B7" stroke-width="1.35" stroke-linecap="round" stroke-linejoin="round"/><path d="M1342.456 404.65s-.38-4.83 4.252-6.618c7.266-2.805 14.317 2.306 14.486 8.415.168 6.109-5.637 5.273-7.814 4.255-2.177-1.019-2.836-4.02-5.472-3.504-2.637.518-5.208.56-5.452-2.548" fill="#FFF"/><path d="M1342.456 404.65s-.38-4.83 4.252-6.618c7.266-2.805 14.317 2.306 14.486 8.415.168 6.109-5.637 5.273-7.814 4.255-2.177-1.019-2.836-4.02-5.472-3.504-2.637.518-5.208.56-5.452-2.548Z" stroke="#2150B7" stroke-width="1.35" stroke-linecap="round" stroke-linejoin="round"/><path d="m1352.404 469.317-10.73 10.566s-2.372 5.819-3.861 6.355c-1.49.537-17.335-9.954-14.516-16.287 1.52-3.416 12.641 3 12.641 3l7.555-9.843 7.84 6.745" fill="#2F74EB"/><path d="m1352.404 469.317-10.73 10.566s-2.372 5.819-3.861 6.355c-1.49.537-17.335-9.954-14.516-16.287 1.52-3.416 12.641 3 12.641 3l7.555-9.843 7.84 6.745M1222.192 370.984c-13.294.218-24.754-4.341-24.754-4.341" stroke="#2150B7" stroke-width="1.35" stroke-linecap="round" stroke-linejoin="round"/><path d="M1218.204 335.167a1.826 1.826 0 0 1-3.652 0 1.826 1.826 0 0 1 3.652 0M1360.512 330.668a1.826 1.826 0 1 1-3.653-.003 1.826 1.826 0 0 1 3.653.003" fill="#2150B7"/><path d="M1375.63 437.975v38.156s1.504 1.077 3.517 1.077 3.952-1.077 3.952-1.077v-44.266" fill="#FFF"/><path d="M1375.63 437.975v38.156s1.504 1.077 3.517 1.077 3.952-1.077 3.952-1.077v-44.266M1384.78 326.143l8.238 25.019M1399.64 363.943s16.93 29.702 6.94 40.745c-5.264 6.482-21.236 6.073-25.15 3.687-3.912-2.386-4.272-9.174.949-11.468 6.08-2.671 15.242-4.612 15.242-4.612M1391.78 392.745l-.694-9.002M1391.086 345.043s6.814 1.194 9.115 6.842c1.139 3.606-.665 3.308 3.974 6.617 4.64 3.31-.536 11.65-.536 11.65" stroke="#2150B7" stroke-width="1.35" stroke-linecap="round" stroke-linejoin="round"/></g><g><path d="M360.478 470.883s14.536-5.262 18.145-10.017c1.53-2.014.782-27.058-.288-31.387-1.07-4.329-16.832-5.545-23.698-6.423-9.29-1.19-26.637 7.312-26.637 7.312l32.478 40.515Z" stroke="#2150B7" stroke-width="1.5" stroke-linecap="round" stroke-linejoin="round"/><path d="M329.045 468.256a3.63 3.63 0 0 1-2.437-3.081c-.629-6.54-1.252-32.145.786-33.999 3.777-3.438 31.041 1.329 32.685 1.982 5.19 2.064 2.432 25.935 2.078 34.911a3.977 3.977 0 0 1-3.797 3.815c-7.062.33-23.376-1.568-29.315-3.628" fill="#D7F0FF"/><path d="M329.045 468.256a3.63 3.63 0 0 1-2.437-3.081c-.629-6.54-1.252-32.145.786-33.999 3.777-3.438 31.041 1.329 32.685 1.982 5.19 2.064 2.432 25.935 2.078 34.911a3.977 3.977 0 0 1-3.797 3.815c-7.062.33-23.376-1.568-29.315-3.628ZM364 432.816l10.426-2.874" stroke="#2150B7" stroke-width="1.5" stroke-linecap="round" stroke-linejoin="round"/><path d="M394.626 499.693s15.24-7.64 17.348-9.668c2.965-2.852.933-36.054-.84-39.217-1.773-3.165-22.533-6.14-28.716-5.846-6.183.295-22.418 7.602-22.418 7.602l34.626 47.129Z" fill="#FFF"/><path d="M394.404 499.692s15.239-7.64 17.348-9.667c2.965-2.852.933-36.055-.84-39.218-1.774-3.164-22.534-6.14-28.717-5.845-6.183.294-23.195 7.982-23.195 7.982l35.404 46.748ZM396 455.925l11.969-4.983" stroke="#2150B7" stroke-width="1.5" stroke-linecap="round" stroke-linejoin="round"/><path d="M357.336 492.788s-4.04-40.12 1.934-40.74c5.922-.614 32.746 1.47 34.653 5.598 1.908 4.13 4.515 39.806-.026 41.53-4.542 1.725-35.533 1.326-36.561-6.388" fill="#D7F0FF"/><path d="M357.336 492.788s-4.04-40.12 1.934-40.74c5.922-.614 32.746 1.47 34.653 5.598 1.908 4.13 4.515 39.806-.026 41.53-4.542 1.725-35.533 1.326-36.561-6.388Z" stroke="#2150B7" stroke-width="1.5" stroke-linecap="round" stroke-linejoin="round"/><path d="M366.005 464.948c-2.4.156-3.08 4.143-3.498 5.848-.96 3.91-1.232 7.957-1.503 11.96-.117 1.736 2.582 1.728 2.7 0 .177-2.606.338-5.223.734-7.809.129-.841.592-4.574 1.423-6.394.085.614.112 1.25.153 1.52.234 1.592.435 3.188.61 4.788.284 2.58.48 5.166.63 7.758.1 1.728 2.8 1.74 2.7 0-.243-4.225-.65-8.431-1.246-12.622-.247-1.728-.143-5.216-2.703-5.05M379.614 467.678c-.412 3.779-.86 7.555-1.325 11.327-.262-1.41-.418-2.845-.626-3.81-.608-2.814-1.279-5.585-2.278-8.292-.453-1.23-2.186-1.331-2.603 0-1.736 5.54-1.743 11.035-1.782 16.788-.012 1.739 2.688 1.74 2.7 0 .025-3.774.041-7.454.58-11.106.426 1.7.791 3.415 1.165 5.138.51 2.36.703 5.628 2.61 7.305.946.832 2.155.201 2.305-.955a821.514 821.514 0 0 0 1.954-16.395c.188-1.725-2.513-1.712-2.7 0M390.124 467.765l-5.42-.802c-.727-.107-1.442.183-1.66.944-.182.635.222 1.556.942 1.661l1.342.2-.204 15.006c-.023 1.739 2.676 1.74 2.7 0l.199-14.609c.461.068.922.136 1.383.206.727.107 1.442-.183 1.66-.945.183-.635-.222-1.555-.942-1.661M336.082 449.901c-.02-.006-.038-.007-.057-.012-.007-.515-.018-1.029-.015-1.545.006-.919-.17-6.212.579-6.573 3.141-1.514 4.068 9.672-.507 8.13m2.391-10.527c-7.794-3.647-4.927 16.893-5.085 20.201-.083 1.738 2.617 1.735 2.7 0 .11-2.297.046-4.589-.013-6.88 6.375 1.272 7.936-10.73 2.398-13.32M350.556 446.858c-1.06-.881-1.521-2.04-1.383-3.475.314-1.135.966-2.044 1.956-2.729 1.23 1.233 3.139-.678 1.909-1.91-2.421-2.423-5.59 1.197-6.33 3.512-.533 1.664-.333 3.28.54 4.79.532.919 1.38 1.613 2.053 2.415.91.84 1.384 1.891 1.424 3.154-1.114 2.591-2.26 2.995-3.435 1.208-1.2-1.261-3.108.651-1.909 1.91 2.5 2.626 6.194 2.825 7.654-.98.676-1.763.433-3.801-.46-5.437-.515-.939-1.328-1.66-2.02-2.458" fill="#2150B7"/></g><g><path d="M104.637 161.8c-7.321-4.098 7.446-12.4 7.446-12.4l5.175 3.776-12.62 8.623Z" fill="#2F74EB"/><path d="M104.637 161.8c-7.321-4.098 7.446-12.4 7.446-12.4l5.175 3.776-12.62 8.623Z" stroke="#2150B7" stroke-width=".8"/><path d="M112.328 149.594s-14.697 7.715-7.376 11.81" fill="#FFF"/><path d="M112.328 149.594s-14.697 7.715-7.376 11.81" stroke="#2150B7" stroke-width="1.2" stroke-linecap="round" stroke-linejoin="round"/><path d="M100.48 193.392c-.002 2.684.005 4.631 1.781 6.47 2.035 2.106 6.24.398 2.924-2.354-.587-.928-.09-3.433.752-6.713 0 0 3.075-7.653-2.056-7.794-5.13-.142-3.4 10.39-3.4 10.39" fill="#FFF"/><path d="M78.669 185.712c.008.768.365-7.51 8.062-10.01 10.023-3.255 12.771-4.712 15.6-9.153 3.106-4.88 5.582-15.861 11.304-18.19 5.134-2.088 8.71 2.345 12.238 2.324 3.527-.022 5.084-2.529 6.312.445 1.808 4.376-1.926 9.708-10.552 12.341-2.623 1.358-3.093 10.629-3.937 15.728-.844 5.1-4.97 16.951-3.635 19.063 3.315 2.752-.925 4.754-2.959 2.648-4.112-4.256-1.394-14.123-1.394-14.123s-7.93 5.717-14.447 5.887c-1.446 7.592-4.574 8.61-3.844 15.557 2.977 2.02-.642 4.924-3.584 2.81-1.42-1.019-2.4-4.62-2.308-7.795.108-3.783 1.93-6.25.117-9.48-1.986-1.302-3.053-.912-3.053-.912s-2.539 3.935-1.12 10.384c.597 2.716-3.824 2.668-4.612-.343-2.194-8.38 1.812-17.181 1.812-17.181" fill="#FFF"/><path d="M78.9 185.82c.009.77.366-7.51 8.063-10.01 10.023-3.254 12.771-4.711 15.6-9.152 3.107-4.88 4.606-15.086 10.329-17.414 5.134-2.088 9.686 1.568 13.213 1.548 3.527-.022 5.52-1.85 6.312.444 1.513 4.382-.814 8.776-10.552 12.342-1.575 1.18-3.093 10.629-3.937 15.728-.844 5.1-4.97 16.951-3.635 19.063 3.315 2.752-.925 4.754-2.959 2.648-4.112-4.257-2.01-13.899-2.01-13.899s-7.024 5.528-13.54 5.698c-1.446 7.592-4.865 8.574-4.135 15.522 2.977 2.02-.642 4.924-3.583 2.81-1.42-1.019-2.4-4.62-2.31-7.796.109-3.782.842-5.601.049-8.89-2.11-1.8-2.463-2.077-2.694-1.466 0 0-3.225 4.758-1.154 10.679.917 2.622-4.987 2.527-5.565-2.249-1.044-8.605 2.509-15.606 2.509-15.606Z" stroke="#2150B7" stroke-width="1.2" stroke-linecap="round" stroke-linejoin="round"/><path d="M105.727 189.4c-.843 3.282-1.408 6.374-.823 7.3 3.316 2.754-.889 4.46-2.923 2.355-1.776-1.838-1.783-3.785-1.78-6.47M119.919 156.313s.068 12.245-5.85 10.004c-4.652-1.761.847-12.117.847-12.117" stroke="#2150B7" stroke-width="1.2" stroke-linecap="round" stroke-linejoin="round"/><path d="M102.854 163.8s6.8 7.254 16.901 5.203c.188.123-.684 4.322-.684 4.322-.874.072-11.105 1.914-18.071-5.987.758-1.11 1.854-3.538 1.854-3.538" fill="#2F74EB"/><path d="M102.854 163.8s6.8 7.254 16.901 5.203c.188.123-.684 4.322-.684 4.322-.874.072-11.105 1.914-18.071-5.987.758-1.11 1.854-3.538 1.854-3.538Z" stroke="#2150B7" stroke-width="1.2" stroke-linecap="round" stroke-linejoin="round"/><path d="M123.84 154.214a1.43 1.43 0 0 1-1.585 1.26 1.437 1.437 0 0 1-1.245-1.603 1.429 1.429 0 0 1 1.584-1.26c.781.094 1.339.811 1.245 1.603M132.38 151.825c-.094.79-.478 1.097-1.26 1.002-.78-.094-2.21-.918-2.116-1.71.094-.79 1.35-.99 2.13-.895.782.094 1.34.812 1.246 1.603" fill="#2150B7"/><path d="m132.358 155-2.558 1.217" stroke="#2150B7" stroke-width="1.2" stroke-linecap="round" stroke-linejoin="round"/><path d="M87.63 182.144c-3.146 4.465-1.674 8.685-7.64 12.135-8.669 5.012-20.33-5.438-12.292-4.943 10.645-6.025 16.206-10.692 16.206-10.692s4.846-1.484 8.377.974c3.531 2.458-4.651 2.526-4.651 2.526" fill="#FFF"/><path d="m66.095 189.07 5.116-2.04s2.898-.596-.85 3.487c-1.42 1.547 7.203-2.426 3.435 1.196-2.405 2.643 4.389 1.656 7.159.085 1.97-2.51 2.308-.054-1.462 2.204-2.674 1.602-6.01 2.554-11.442-.218-5.43-2.774-1.956-4.714-1.956-4.714" fill="#FFF"/><path d="M83.309 179.003c.07-.137-4.07 5.22-15.557 10.174-8.145.622 3.553 10.542 12.223 5.53 5.966-3.448 6.051-7.461 7.674-12.428" stroke="#2150B7" stroke-width="1.2" stroke-linecap="round" stroke-linejoin="round"/><path d="M34.737 205.284s-3.026 25.178-1.178 30.07c1.848 4.894 11.484 10.972 3.79 11.49-7.694.518-9.646.265-9.049-9.977-2.565-11.38-3.295-26.624-1.539-31.583 0 0 4.48-8.018 6.282-6.994 1.804 1.025 1.694 6.994 1.694 6.994" fill="#FFF"/><path d="M48.503 200.742c-1.854 7.069-3.168 25.958-1.896 30.89 1.273 4.93 12.124 5.23 7.334 7.704-5.3 2.738-8.227-.244-12.016-.623-3.789-.506-2.2-3.309-1.1-7.334 1.1-4.025-1.2-9.23-1.406-18.84-.208-9.61 1.406-10.883 1.406-10.883s4.973-5.793 6.452-4.977c1.48.815 1.226 4.063 1.226 4.063" fill="#FFF"/><path d="M37.958 200.28s2.102 1.42 6.792 1.092c4.69-.33 4.885-1.776 5.66-9.426.775-7.65 1.133-21.365 1.133-21.365s-.721-1.526-10.078-3.792c-9.357-2.267-17.253 2.742-17.253 2.742s-1.529 4.131-.391 11.14c.769 3.524-.213 20.095.391 21.44.605 1.346 7.52 4.1 13.103.889 1.41-5.36 3.787-19.589 3.787-19.589" fill="#D7F0FF"/><path d="M46.404 231.253c-2.278 1.976-5.782-.253-5.782-.253s-3.379 6.12 1.1 7.334c4.185 1.122 5.153 2.004 8.473 1.768 3.319-.235 6.143-2 4.307-2.967-1.835-.966-6.425-2.698-7.262-4.29l-.836-1.592ZM33.523 235c-.661 2.953-5.258 1.513-5.258 1.513s-.643 8.918 2.114 9.515c2.757.597 7.868.978 9.61-.388 1.743-1.367-4.658-7.446-5.391-8.667-.733-1.221-1.075-1.973-1.075-1.973" fill="#2F74EB"/><path d="M28.234 134.328c-4.17-3.916-8.834-3.554-8.834-3.554s3.458-11.7 9.524-13.818c6.066-2.116 7.868-5.91 13.731-5.024 5.864.884 8.289 7.463 10.301 8.41 1.382 2.335 3.589 8.786 3.306 12.326l-4.076.633-.124 36.257s-15.322 8.282-30.168-1.47c.578-17.717 6.34-33.76 6.34-33.76" fill="#FFF"/><path d="M23.402 153.09s-1.015 11.925-.761 14.708c.253 2.78 20.778 8.321 30.169 1.47 0-6.358-.999-33.151-.19-40.668" stroke="#2150B7" stroke-width="1.2" stroke-linecap="round" stroke-linejoin="round"/><path fill="#D7F0FF" d="m45.8 155.548 28.075-2.992L80.13 128.6l-28.009 2.092z"/><path stroke="#2150B7" stroke-width="1.2" stroke-linecap="round" stroke-linejoin="round" d="m45.8 156.043 28.147-2.688 5.874-23.955-27.629 2.091z"/><path d="M28.718 134.196s-2.583 8.5-1.612 9.866c.972 1.368 8.317 3.045 12.311 3.045 4.268-2.918 9.212-1.4 9.212-1.4s-2.444 2.149 1.026 2.528c3.47.38 3.712 2.667 1.287 4.287-1.965 1.316-1.784 2.4-5.046 3.032-3.261.632-8.446-.773-8.446-.773s-16.68-.253-19.296-3.88c-2.617-3.627-.234-17.155 1.73-20.259 1.281-2.024 8.834 3.554 8.834 3.554" fill="#FFF"/><path d="M49.31 116.842s2.03 6.22-2.018 6.212c-2.507-.005-4.43-5.533-4.43-5.533s-3.112 4.141-5.784 4.774c-3.97.939-4.801-5.191-4.878-6.337l10.492-4.158 7.631 3.35" stroke="#2150B7" stroke-width="1.2" stroke-linecap="round" stroke-linejoin="round"/><path d="M37.334 116.342c11.516 1.482 16.595-.304 20.514-6.727 7.33-12.017-3.008-21.878-10.094-24.611-5.828-2.248-22.562-2.825-25.533 11.898-3.419 16.938 15.113 19.44 15.113 19.44" fill="#D7F0FF"/><path d="M37.334 116.342c11.516 1.482 16.595-.304 20.514-6.727 7.33-12.017-3.008-21.878-10.094-24.611-5.828-2.248-22.562-2.825-25.533 11.898-3.419 16.938 15.113 19.44 15.113 19.44Z" stroke="#2150B7" stroke-width="1.2" stroke-linecap="round" stroke-linejoin="round"/><path d="M39.461 115.186s-12.92-1.585-12.016-12.075c.796-9.223 10.447-11.753 18.92-9.984 11.37 2.373 12.13 8.516 11.504 12.856-.627 4.339-3.941 11.417-18.408 9.203" fill="#FFF"/><path d="M39.461 115.186s-12.92-1.585-12.016-12.075c.796-9.223 10.447-11.753 18.92-9.984 11.37 2.373 12.13 8.516 11.504 12.856-.627 4.339-3.941 11.417-18.408 9.203ZM34.332 86.25s-2.596-9.838 3.681-7.762M48.2 87.071s3.853-9.417 7.614-3.981" stroke="#2150B7" stroke-width="1.2" stroke-linecap="round" stroke-linejoin="round"/><path d="M39.589 102.857a1.299 1.299 0 1 1-2.578-.315 1.299 1.299 0 0 1 2.578.315M51.589 104.457a1.299 1.299 0 1 1-2.578-.315 1.299 1.299 0 0 1 2.578.315M41.98 124.6a.979.979 0 1 1-.001 1.957.979.979 0 0 1 0-1.957M41.98 131.8a.979.979 0 1 1-.002 1.958.979.979 0 0 1 .001-1.958" fill="#2150B7"/><path d="M45.349 102.218c.122-.4 1.458 6.1-1.949 4.683M49.804 117.412c-.18-.228 5.947 2.672 6.609 13.27M24.212 170.2s-1.528 4.13-.392 11.14c.77 3.523-.212 20.095.392 21.44.605 1.344 7.52 4.098 13.104.888 1.41-5.36 3.786-19.589 3.786-19.589s.724-.312 2.209-1.07M52.186 171s-.36 13.716-1.134 21.365c-.774 7.65-.969 9.097-5.66 9.425-4.69.33-6.792-1.092-6.792-1.092" stroke="#2150B7" stroke-width="1.2" stroke-linecap="round" stroke-linejoin="round"/><path d="M34.737 204.6s-3.026 25.178-1.178 30.07c1.848 4.894 11.484 10.97 3.79 11.49-7.694.518-9.646.264-9.049-9.977-2.565-11.38-3.295-26.624-1.539-31.583" stroke="#2150B7" stroke-width="1.2" stroke-linecap="round" stroke-linejoin="round"/><path d="M40.826 201.513s-1.615 1.275-1.408 10.884c.208 9.61 2.508 14.815 1.408 18.84-1.101 4.025-2.69 6.828 1.1 7.333 3.788.38 6.715 3.362 12.016.625 4.79-2.473-6.062-2.773-7.334-7.705-1.273-4.93.04-23.821 1.896-30.89" stroke="#2150B7" stroke-width="1.2" stroke-linecap="round" stroke-linejoin="round"/><path d="M41 231s3.503 2.229 5.782.253M29 236.933s3.39 1.312 4.88-1.133" stroke="#2150B7" stroke-width="1.2" stroke-linecap="round" stroke-linejoin="round"/><path d="M62.332 137.594s6.166-.437 6.353 0c.674 1.574-1.897 2.238-1.897 2.238s2.776 2.56 1.91 4.741c-.866 2.181-4.09 3.224-4.754 2.466-.664-.76 2.276-3.363 1.285-4.797-.26 2.591-2.233 4.228-5.793 4.038-3.175-.17 3.812-4.913 2.421-6.074-1.255-1.048-2.42-2.612.475-2.612" fill="#FFF"/><path d="M62.332 137.594s6.166-.437 6.353 0c.674 1.574-1.897 2.238-1.897 2.238s2.776 2.56 1.91 4.741c-.866 2.181-4.09 3.224-4.754 2.466-.664-.76 2.276-3.363 1.285-4.797-.26 2.591-2.233 4.228-5.793 4.038-3.175-.17 3.812-4.913 2.421-6.074-1.255-1.048-2.42-2.612.475-2.612ZM30.191 130.243s-4.038 12.935-3.066 14.302c.971 1.367 8.317 3.045 12.31 3.045 4.27-2.919 9.212-1.401 9.212-1.401s-2.444 2.15 1.027 2.529c3.47.379 3.711 2.666 1.286 4.287-1.965 1.315-1.784 2.4-5.045 3.032-3.262.632-8.447-.774-8.447-.774s-16.678-.253-19.295-3.879c-2.618-3.627-.756-17.402 4.605-27.48 3.385-6.367 10.199-8.104 10.199-8.104" stroke="#2150B7" stroke-width="1.2" stroke-linecap="round" stroke-linejoin="round"/><path d="M19.4 131.009s4.665-.361 8.834 3.554" stroke="#2150B7" stroke-width="1.2" stroke-linecap="round" stroke-linejoin="round"/><path d="M73.802 144.634s-.058-5.505 4.087-5.633c2.585-.08 2.601 3.295 1.893 5.82-1.333 4.756-6.097 4.854-5.98-.187" fill="#FFF"/><path d="M73.802 144.634s-.058-5.505 4.087-5.633c2.585-.08 2.601 3.295 1.893 5.82-1.333 4.756-6.097 4.854-5.98-.187Z" stroke="#2150B7" stroke-width="1.2" stroke-linecap="round" stroke-linejoin="round"/><g stroke="#2150B7" stroke-linecap="round" stroke-linejoin="round" stroke-width="1.2"><path d="M94.322 94.14S88.31 82.555 93.862 73c5.717-9.84 21.763-11.429 28.798-8.985 10.494 3.644 16.984 12.69 12.766 25.418-5.126 15.469-29.412 10.403-32.091 10.898-2.68.496-14.637 6.681-15.837 5.25-1.2-1.43 9.066-5.035 6.824-11.44Z"/><path d="m106.34 77.4-3.74 6.274 4.78 4.815M123.473 77.4l3.272 5.097-4.145 5.52M115.878 76.6 113.8 88.543"/></g></g><g><path d="M530.837 488.482c-.697 10.213-9.5 17.924-19.66 17.223-10.16-.702-17.83-9.55-17.132-19.763.697-10.213 9.499-17.925 19.659-17.223 10.16.701 17.831 9.55 17.133 19.763" fill="#FFF"/><path d="M530.574 490.54c-.503 8.774-7.405 15.367-15.419 14.727-8.012-.64-14.1-8.27-13.596-17.044.502-8.772 7.406-15.365 15.418-14.726 8.013.64 14.1 8.27 13.597 17.044" fill="#D7F0FF"/><path d="M530.836 488.534c-.697 10.214-9.499 17.925-19.66 17.224-10.16-.702-17.83-9.55-17.132-19.763.697-10.214 9.5-17.925 19.659-17.223 10.16.7 17.831 9.549 17.133 19.762Z" stroke="#2150B7" stroke-width="1.5" stroke-linecap="round" stroke-linejoin="round"/><path d="M502.481 471.664s18.198 11.198 10.456 33.855" stroke="#2150B7" stroke-width="1.5" stroke-linecap="round" stroke-linejoin="round"/><path d="M498.14 475.567s10.985 6.504 9.94 21.853M506.418 504.515l1.018-2.84M495.022 482.526s7.398 2.781 6.298 18.884M511.23 480.775s10.002-3.067 18.68.502M514.57 487.334s8.325-3.132 16.266 1.2M514.952 494.22s7.059-2.066 13.707 1.862M506.517 475.005s12.942-3.785 19.852.113M514.733 500.098s6.533-.524 9.312 1.566" stroke="#2150B7" stroke-width="1.5" stroke-linecap="round" stroke-linejoin="round"/></g><g><path d="M232.072 489.674s2.183 7.123.07 7.677c-13.057-9.49-25.455-7.274-25.75-6.349-.297.923-1.275 2.309-3.769 1.875-2.495-.435-5.136-1.896-4.026-3.254-9.333-6.585-19.68-3.699-19.318-5.137.666-2.643.503-3.342-.682-5.084-.81-1.193 2.227-2.757 2.227-2.757l19.968-19.76s13.179 1.498 18.363 8.045c0 0 15.75-6.465 25.817 1.318 0 0 .964 6.122 1.317 9.581-4.38 5.856-13.532 21.556-13.532 21.556" fill="#FFF"/><path d="M178.46 476.39s18.915-19.718 22.501-19.504c3.587.213 11.366 1.15 18.364 8.044 12.057-5.027 19.318-2.77 26.478 1.666-1.514 3.825-13.562 23.079-13.562 23.079s-15.137-9.934-29.732-1.666c-3.188-5.282-12.671-11.426-24.05-11.619" fill="#FFF"/><path d="M178.46 476.39s18.915-19.718 22.501-19.504c3.587.213 10.605 1.197 17.604 8.091 12.058-5.027 20.078-2.817 27.238 1.62-1.514 3.824-13.562 23.078-13.562 23.078s-15.137-9.934-29.732-1.666c-3.188-5.282-12.671-11.426-24.05-11.619ZM217.565 466.775l-13.895 18.55" stroke="#2150B7" stroke-width="1.35" stroke-linecap="round" stroke-linejoin="round"/><path d="M180.111 476.664s-3.638 2.458-2.226 2.758c1.452.308 1.348 2.44.681 5.085-.362 1.437 9.605-1.426 18.938 5.16-1.11 1.358 1.532 2.818 4.026 3.252 2.495.434 3.473-.951 3.769-1.875.295-.923 12.693-3.14 25.75 6.35 2.113-.555.691-7.723.691-7.723" stroke="#2150B7" stroke-width="1.35" stroke-linecap="round" stroke-linejoin="round"/><path d="M178.46 479.362s12.704-.12 21.502 9.714" stroke="#2150B7" stroke-width="1.35" stroke-linecap="round" stroke-linejoin="round"/><path d="m214.475 479.009 4.705-6.687s4.167-.684 8.284.84c-2.183 3.321-4.008 6.5-4.008 6.5s-6.399-2.073-8.98-.653" fill="#D7F0FF"/><path d="m214.475 479.009 4.705-6.687s4.167-.684 8.284.84c-2.183 3.321-4.008 6.5-4.008 6.5s-6.399-2.073-8.98-.653Z" stroke="#2150B7" stroke-width="1.35" stroke-linecap="round" stroke-linejoin="round"/><path d="M211.992 466.577c-5.05-5.975-11.822-6.096-11.822-6.096l-6.404 6.358s8.743.987 13.025 6.284c4.842-6.947 5.2-6.546 5.2-6.546" fill="#D7F0FF"/><path d="M211.992 466.577c-5.05-5.975-11.822-6.096-11.822-6.096l-6.404 6.358s8.743.987 13.025 6.284c4.842-6.947 5.2-6.546 5.2-6.546ZM191.065 469.472s8.007.73 11.894 6.304M188.364 473.068s5.734.633 8.442 3.388M201.87 490.885s-.086.63 2.906-1.331c3.076-2.018 17.569-1.778 23.83 2.931M244.985 466.775s-.223 5.432.13 8.891c-4.38 5.856-13.533 21.556-13.533 21.556" stroke="#2150B7" stroke-width="1.35" stroke-linecap="round" stroke-linejoin="round"/><path d="M224.025 472.044s2.728-5.305 8.84-3.298c4.138 1.36.638 8.43-6.137 6.132" fill="#D7F0FF"/><path d="M224.025 472.044s2.728-5.305 8.84-3.298c4.138 1.36.638 8.43-6.137 6.132" stroke="#2150B7" stroke-width="1.35" stroke-linecap="round" stroke-linejoin="round"/><g><path d="m234.49 432.597-9.582-2.452s-20.817-4.922-17.884-14.07c2.606-8.544 22.348-8.205 22.348-8.205s1.641-5.782 5.54-1.503c3.897 4.278 17.317 2.795 21.936 2.178 1.808.584-1.4 2.573.71 3.94 1.61 1.043 5.386 2.128 6.994 3.219 6.725 2.489 19.24 17.83-15.916 16.471 1.89 2.27-1.83 12.534-5.344 9.2-2.722-2.582-1.754-3.85-4.427-6.108-2.672-2.258-4.376-2.67-4.376-2.67" fill="#FFF"/><path d="M265.877 416.847s-4.033-28.794-5.154-39.416c-1.34-12.698-9.654-13.255-9.654-13.255s-5.923-3.9-12.01-4.503c-6.089-.602-9.5 2.589-9.5 2.589s-8.038.12-7.394 10.66c.643 10.532.767 31.313-.406 35.276 0 0 12.564 11.125 20.37 11.98 7.806.853 23.748-3.331 23.748-3.331" fill="#FFF"/><path d="M232.896 433.225s-6.34 7.265-10.031 4.501c-2.933-2.194.899-6.94.899-6.94s3.315.398 5.1-.416c2.594-1.182 2.418-6.556 4.295-5.204 2.182 1.57 11.695-.882 11.695-.882s-1.03 4.028.393 6.16l-12.351 2.78Z" fill="#2F74EB"/><path d="M228.867 431.33s-.674-5.423 3.483-8.818c0 0 11.396 6.408 12.865 7.661 1.468 1.254 3.63 3.503 2.449 7.596-1.182 4.092-2.493 5.76-5.173 3.972-2.68-1.788-3.255-7-7.1-8.366-3.843-1.369-6.524-2.045-6.524-2.045" fill="#2F74EB"/><path d="M223.099 417.045c.636-5.922-1.34-8.948-1.34-8.948l6.78-.215s.213-4.987 3.907-2.295c10.279 6.147 20.938 3.517 23.602 1.975-.123 3.791.679 4.936.679 4.936l4.02 2.273s-4.152 1.717-4.136 6.091l-19.413 3.814-14.1-7.631Z" fill="#D7F0FF"/><path d="M261.756 385.516c5.411-3.337 13.56-11.993 5.05-19.04-8.51-7.048-3.132-10.932-3.613-17.96-.481-7.03-5.185-8.413-5.185-8.413l-9.753 21.492s-.516 2.585 6.182 4.004c5.996 2.298 7.32 19.917 7.32 19.917" fill="#2150B7"/><path d="M235.195 362.985s-18.334.507-16.888-17.531c.834-18.106 15.02-19.38 23.55-18.405 8.529.972 18.525 7.554 16.054 22.994-1.664 10.902-14.527 13.941-22.716 12.942" fill="#FFF"/><path d="M257.014 355.98c-2.986-1.256-5.565-5.13-5.344-12.695-4.689-.315-10.158-2.702-15.046-7.994-7.994 7.942-15.748 4.212-15.748 4.212s2.386-14.166 19.457-12.566c17.07 1.6 19.374 14.065 19.23 17.664-.222 5.542-2.549 11.378-2.549 11.378" fill="#2150B7"/><path d="M236.078 362.985s-18.334.507-16.888-17.531c.834-18.106 15.021-19.38 23.55-18.405 8.53.972 18.524 7.554 16.054 22.994-1.664 10.902-14.526 13.942-22.716 12.942Z" stroke="#2150B7" stroke-width="1.35" stroke-linecap="round" stroke-linejoin="round"/><path d="M220.876 339.013s7.306 3.715 15.3-4.227c4.888 5.291 10.357 7.678 15.046 7.994-.221 7.565 2.358 11.438 5.344 12.695M234.308 345.42s-2.454 3.483.094 4.661" stroke="#2150B7" stroke-width="1.35" stroke-linecap="round" stroke-linejoin="round"/><path d="M227.803 347.703a1.259 1.259 0 1 1-2.502-.27 1.26 1.26 0 0 1 1.386-1.12c.69.075 1.19.697 1.116 1.39M243.705 348.588a1.26 1.26 0 0 1-1.386 1.12 1.26 1.26 0 0 1-1.116-1.39 1.26 1.26 0 0 1 1.386-1.119 1.26 1.26 0 0 1 1.116 1.39" fill="#2150B7"/><path d="m231.477 354.28 4.117.446" stroke="#2150B7" stroke-width="1.35" stroke-linecap="round" stroke-linejoin="round"/><path d="M252.191 381.941c-13.34 1.313-22.463-3.735-22.463-3.735s-2.322 5.728.491 10.582c.872 1.505.96 4.86.76 6.722 12.543 6.694 23.292 4.01 23.292 4.01l-2.08-17.579" fill="#D7F0FF"/><path d="M254.306 399.52s-12.49 1.739-23.327-4.01c.2-1.864.112-5.217-.76-6.722-2.813-4.854-.491-10.582-.491-10.582s9.123 5.047 22.463 3.735M229.877 363.142s-8.037.12-7.394 10.66c.644 10.531.449 30.616-.724 34.578M250.914 364.914s8.313.56 9.653 13.257c1.121 10.62 5.154 39.415 5.154 39.415M251.797 377.32s3.02 19.843 5.113 35.313" stroke="#2150B7" stroke-width="1.35" stroke-linecap="round" stroke-linejoin="round"/><path d="M250.331 365.8s-2.626 5.41-1.96 15.852M230.408 364.028s-1.522 4.998-.069 14.313M231.477 395.928c.202.106.45 8.39.45 8.39.193.548 7.187 8.251 24.422 4.349M231.415 404.79s-2.08-.1-2.606 3.688c-9.946-.79-23.843 2.744-22.907 9.994 1.389 10.75 25.48 12.486 29.729 15.145 4.249 2.659 4.527 6.074 7.1 8.366 2.06 1.837 4.968-.187 5.56-6.35.412-4.29-3.942-5.745-7.077-7.838-2.75-1.836-23.107-13.068-23.107-13.068M248.263 431.97c9.611 1.038 21.766.416 23.338-5.747 2.468-9.673-16.489-13.459-16.489-13.459" stroke="#2150B7" stroke-width="1.35" stroke-linecap="round" stroke-linejoin="round"/><path d="M232.986 432.94s-6.339 7.264-10.03 4.501c-2.933-2.195.45-6.954.45-6.954M237.706 424.675c-.857.54 10.849-2.076 20.113-3.936M223.982 417.282c.636-5.922-1.34-8.948-1.34-8.948M228.87 430.88s-.69-4.972 3.467-8.368M232.36 411.878s6.895 5.983 18.743 4.467M258.865 340.103s3.806 1.355 4.287 8.383c.482 7.029-4.896 10.913 3.614 17.96 8.51 7.047 1.257 15.734-4.153 19.07M261.234 414.537s-3.83 1.93-4.136 6.092M244.96 424.284s-.725 4.758.393 6.16" stroke="#2150B7" stroke-width="1.35" stroke-linecap="round" stroke-linejoin="round"/><path d="M102.044 304.964c5.595-4.64 40.228-3.298 43.917.362s2.457 30.83.077 34.759c-1.724 2.846-29.842 4.729-43.177.44-5.395-1.736-4.738-32.31-.817-35.561" fill="#FFF"/><path d="M102.044 304.964c5.595-4.64 40.228-3.298 43.917.362s2.457 30.83.077 34.759c-1.724 2.846-29.842 4.729-43.177.44-5.395-1.736-4.738-32.31-.817-35.561Z" stroke="#2150B7" stroke-width="1.35" stroke-linecap="round" stroke-linejoin="round"/><path d="M127.32 449.173c4.883 2.507 7.25 5.247 7.491 9.318.808 13.679-22.273 21.737-49.005 20.985-26.731-.75-48.183-10.007-47.801-23.706.18-6.465 13.01-13.614 23.86-15.147 0 0 40.239-1.5 49.51 1.39 9.27 2.893 15.946 7.16 15.946 7.16" fill="#FFF"/><path d="M121.286 446.947c4.31 2.214 9.68 5.644 9.892 9.238.714 12.08-22.945 18.183-46.548 17.52-23.605-.663-42.545-8.837-42.208-20.933.16-5.708 11.652-9.955 21.233-11.308 0 0 35.53-1.325 43.716 1.228a1196.972 1196.972 0 0 0 13.915 4.255" fill="#FFF"/><path d="M116.05 447.615c3.494 1.793 7.846 4.574 8.018 7.487.578 9.787-18.595 14.735-37.724 14.198-19.128-.538-34.48-7.163-34.205-16.965.129-4.627 9.443-8.068 17.207-9.164 0 0 28.795-1.074 35.428.995a966.782 966.782 0 0 0 11.277 3.449" fill="#2F74EB"/><path d="M127.32 449.173c4.883 2.507 7.251 5.246 7.491 9.317.808 13.68-22.272 21.738-49.005 20.986-26.731-.75-48.183-10.008-47.801-23.707.18-6.464 13.011-13.614 23.86-15.146 0 0 40.24-1.5 49.51 1.39 9.27 2.893 15.946 7.16 15.946 7.16Z" stroke="#2150B7" stroke-width="1.35" stroke-linecap="round" stroke-linejoin="round"/><path d="M53.902 467.201s40.536 17.225 72.088-3.042M128.996 461.514s1.558-.793 2.169-2.672" stroke="#2150B7" stroke-width="1.35" stroke-linecap="round" stroke-linejoin="round"/><path d="M144.915 434s7.596-15.65 11.156-14.029c3.56 1.621 1.179 18.72-1.308 21.214-2.488 2.494-8.863-.647-8.863-.647l-.985-6.538Z" fill="#2F74EB"/><path d="M157.109 428.132c-6.079.295-6.91-2.96-6.91-2.96s3.708-6.181 5.864-5.217c2.154.964 1.046 8.177 1.046 8.177" fill="#FFF"/><path d="M144.898 434s7.597-15.65 11.156-14.029c3.56 1.622 1.179 18.72-1.308 21.215-2.488 2.494-8.863-.648-8.863-.648l-.985-6.538Z" stroke="#2150B7" stroke-width="1.35" stroke-linecap="round" stroke-linejoin="round"/><path d="M150.2 425.17s.83 3.255 6.909 2.96M148.432 427.828s1.152 4.173 3.478 5.816" stroke="#2150B7" stroke-width="1.35" stroke-linecap="round" stroke-linejoin="round"/><path d="M147.549 432.46s2.967-1.379 4.724-1.973" stroke="#2150B7" stroke-width="1.35" stroke-linecap="round" stroke-linejoin="round"/><path d="M102.504 440.117c4.968-.631 5.614-1.128 9.11-1.607 17.589-2.414 18.5-3.073 22.215-3.579 2.152-.381 5.46 5.58 3.12 8.908-3.408 3.67-42.848 13.994-42.848 13.994s-1.882 2.246-5.584-.157c-3.701-2.403-4.577-18.758-4.577-18.758l13.142-12.84s8.627-8.195 14.315-5.78c5.688 2.417 12.666 16.612 12.666 16.612l-9.516 1.966s-3.524-5.19-4.725-5.661c-2.339-.919-7.318 6.902-7.318 6.902" fill="#D7F0FF"/><path d="M124.082 437.118s-6.997-13.516-12.684-15.933c-5.689-2.416-14.316 5.78-14.316 5.78L83.94 439.802s.876 16.355 4.577 18.758c3.702 2.403 5.584.157 5.584.157s39.44-10.322 42.846-13.993c2.342-3.327-.966-9.289-3.118-8.908-4.454.607-4.877 1.432-34.835 5.238" stroke="#2150B7" stroke-width="1.35" stroke-linecap="round" stroke-linejoin="round"/><path d="M96.452 428.714c-.834 18.003-5.415 40.845-5.415 40.845-.719 5.82 2.427 10.38-.106 10.752-2.533.372-3.717-3.02-3.717-3.02.055-.021-1.635 2.565-4.747 4.653-5.904 3.964-8.81-4.44-.147-11.97.853-4.047 2.227-26.68 2.957-39.528l11.175-1.732Z" fill="#FFF"/><path d="M100.284 393.44s4.015-2.545 6.961-5.143c2.946-2.598 2.51-16.15.518-18.878-1.994-2.727-14.434-5.5-18.632-6.135-4.198-.632-9.608 1.046-9.608 1.046s-.015 6.549 1.254 13.603c1.269 7.053 19.507 15.508 19.507 15.508" fill="#AEE8FF"/><path d="M86.407 404.78c14.598-2.93 15.804-15.113 9.736-30.078-6.881-16.966-36.008-11.854-41.076 2.556-4.632 13.17 6.05 23.713 6.05 23.713s6.508 3.28 15.9 3.543l9.39.265Z" fill="#D7F0FF"/><path d="M45.138 463.658s-5.058 1.178-4.434 3.107c.623 1.927 3.055.926 3.055.926s-6.33 7.118.64 7.906c6.968.79 9.356-9.684 9.356-9.684l6.527-32.337c-6.639-.535-9.334-4.862-9.334-4.862l-5.81 34.944Z" fill="#FFF"/><path d="M63.374 401.356s-13.841-8.455-8.06-24.903c5.34-15.196 34.567-17.25 41.052-1.717 6.67 15.971 4.85 27.567-9.747 30.497" stroke="#2150B7" stroke-width="1.35" stroke-linecap="round" stroke-linejoin="round"/><path d="M77.756 364.655s5.328-2.023 9.526-1.39c4.198.633 17.33 2.285 19.325 5.012 1.993 2.728 3.557 17.825.61 20.424-2.944 2.598-6.96 5.143-6.96 5.143M105.84 369.345l-3.348 1.324" stroke="#2150B7" stroke-width="1.35" stroke-linecap="round" stroke-linejoin="round"/><path d="M53.574 381.281s-3.844 9.536 8.695 11.817c24.98 4.543 42.126-12.234 42.126-12.234M63.054 369.751s-4.044-10.91-.865-12.304l3.179-1.394M78.813 367.576s-.638-6.006.532-7.888c1.065-1.714 5.396-2.749 5.396-2.749" stroke="#2150B7" stroke-width="1.35" stroke-linecap="round" stroke-linejoin="round"/><path d="M65.11 450.286c3.572 7.92 18.829 9.664 18.829 9.664l1.5-23.732s6.782.107 10.618-1.732c0 0 1.742-13.36-.302-19.157-1.684-4.774-6.29-8.297-6.29-8.297-1.77-3.256-7.995-9.413-18.541-8.316-8.406.873-9.773 5.762-9.773 5.762s-7.418 1.279-8.522 8.527c-1.104 7.249-1.377 15.306-1.377 15.306.154.158 2.197 3.792 9.334 4.86 0 0 1.901 11.982 4.525 17.115" fill="#FFF"/><path d="M60.97 403.307s1.302-4.6 9.707-5.474c10.547-1.096 15.821 4.867 17.59 8.122M59.203 417.195s3.263 29.506 7.52 34.903c6.64 8.417 16.77 7.282 16.77 7.282M102.492 440.428s7.606-8.316 7.67-8.167c1.557 3.618 4.374 6.927 4.374 6.927" stroke="#2150B7" stroke-width="1.35" stroke-linecap="round" stroke-linejoin="round"/><path d="M138.8 435.982s8.867-3.931 8.945 1.616c.06 4.233-7.613 5.259-6.494 5.18" fill="#FFF"/><path d="M138.8 435.982s8.867-3.931 8.945 1.616c.06 4.233-7.613 5.259-6.494 5.18M85.707 435.763s7.58.672 10.617-1.732" stroke="#2150B7" stroke-width="1.35" stroke-linecap="round" stroke-linejoin="round"/><path d="M51.38 427.785s2.695 4.328 9.335 4.861l-6.529 32.338s-2.387 10.473-9.356 9.685c-6.97-.789-.64-7.908-.64-7.908s-2.874 1.83-3.497-.098c-.622-1.927 5.725-4.33 5.725-4.33s2.37-14.887 4.147-30.074c1.409-12.049.551-25.013 7.658-27.458 10.925-3.756 31.527-1.8 37.11 7.954 4.92 8.594-4.117 57.478-4.117 57.478.374 5.378 2.856 9.97.323 10.343-2.533.372-4.11-3.87-4.11-3.87.054-.022-1.637 2.565-4.748 4.652-5.905 3.964-8.81-4.441-.148-11.97 1.204-5.712 3.447-48.44 3.447-48.44" stroke="#2150B7" stroke-width="1.35" stroke-linecap="round" stroke-linejoin="round"/><path fill="#D7F0FF" d="m50.797 457.689 5.258 1.746-.996 3.472-5.716-.65"/><path stroke="#2150B7" stroke-width="1.35" stroke-linecap="round" stroke-linejoin="round" d="m50.797 457.689 5.258 1.746-.996 3.472-5.716-.65"/><path d="M45.134 459.047c.66-3.623 2.081-4.563 5.529-3.067 3.448 1.497 1.346 6.758-.195 6.994-1.542.238-5.994-.303-5.334-3.927" fill="#D7F0FF"/><path d="M45.134 459.047c.66-3.623 2.081-4.563 5.529-3.067 3.448 1.497 1.346 6.758-.195 6.994-1.542.238-5.994-.303-5.334-3.927Z" stroke="#2150B7" stroke-width="1.35" stroke-linecap="round" stroke-linejoin="round"/><path d="M136.238 446.72c7.29-.265 6.967-7.027 4.22-10.29-2.747-3.264-7.928-.229-7.928-.229s4.208.732 4.542 4.855c.334 4.121-.834 5.664-.834 5.664" fill="#FFF"/><path d="M136.238 446.72c7.29-.265 6.967-7.027 4.22-10.29-2.747-3.264-7.928-.229-7.928-.229s4.208.732 4.542 4.855c.334 4.121-.834 5.664-.834 5.664ZM57.436 455.324s6.561-2.87 13.876 1.57M71.571 461.272s6.923-1.997 11.59-1.448M93.658 459.08s7.423-1.09 10.912 1.401M91.008 367.573s7.07 2.731 7.988 4.89c2.554 6.008 2.022 20.13 2.022 20.13" stroke="#2150B7" stroke-width="1.35" stroke-linecap="round" stroke-linejoin="round"/><path d="M132.194 380.864s-1.194-36.771-.055-42.002c1.138-5.23 6.86-5.203 15.268-5.107 8.409.094 34.977-2.272 38.245.992 3.228 3.22 3.146 16.219 3.479 26.29.356 10.768.85 21.78-3.393 23.277-6.633 2.344-22.408.855-26.391 2.38-3.984 1.525-19.732 18.809-22.137 20.718-2.406 1.908 11.998-20.45 8.228-20.8-3.77-.349-12.57 2.101-13.244-5.748" fill="#FFF"/><path d="M132.194 380.864s-1.194-36.771-.055-42.002c1.138-5.23 6.86-5.203 15.268-5.107 8.409.094 34.977-2.272 38.245.992 3.228 3.22 3.146 16.219 3.479 26.29.356 10.768.85 21.78-3.393 23.277-6.633 2.344-22.408.855-26.391 2.38-3.984 1.525-19.732 18.809-22.137 20.718-2.406 1.908 11.998-20.45 8.228-20.8-3.77-.349-12.57 2.101-13.244-5.748Z" stroke="#2150B7" stroke-width="1.35" stroke-linecap="round" stroke-linejoin="round"/><path d="M181.316 364.173c.18 11.992-9.379 15.817-23.05 16.09-10.958.217-19.33-5.285-19.546-16.277-.217-10.993 5.858-19.964 20.844-20.326 13.339-.321 21.524 5.441 21.752 20.513" fill="#D7F0FF"/><path d="M181.316 364.173c.18 11.992-9.379 15.817-23.05 16.09-10.958.217-19.33-5.285-19.546-16.277-.217-10.993 5.858-19.964 20.844-20.326 13.339-.321 21.524 5.441 21.752 20.513Z" stroke="#2150B7" stroke-width="1.35" stroke-linecap="round" stroke-linejoin="round"/><path d="M174.512 365.112c.131 8.93-8.303 10.75-17.224 10.928-8.922.178-15.774-2.853-15.935-11.038-.163-8.186 3.66-14.851 15.86-15.14 10.858-.26 17.134 4.027 17.3 15.25" fill="#FFF"/><path d="M174.53 365.113c.13 8.929-8.303 10.75-17.225 10.928-8.92.177-15.773-2.854-15.935-11.04-.162-8.184 3.66-14.85 15.86-15.14 10.859-.258 17.135 4.028 17.3 15.252Z" stroke="#2150B7" stroke-width="1.35" stroke-linecap="round" stroke-linejoin="round"/><path d="M156.218 361.37s-2.004 3.783.684 4.632" stroke="#2150B7" stroke-width="1.35" stroke-linecap="round" stroke-linejoin="round"/><path d="M150.96 364.385a1.264 1.264 0 1 1-2.527.05c-.015-.7.54-1.28 1.238-1.293a1.265 1.265 0 0 1 1.288 1.243M165.978 363.498a1.264 1.264 0 1 1-2.527.051 1.265 1.265 0 1 1 2.527-.051M172.965 356.053s-10.66 1.833-15.622-4.141c-6.803 7.12-14.211 4.572-14.211 4.572s4.875-6.77 14.343-7.125c9.469-.356 15.49 6.694 15.49 6.694" fill="#2150B7"/><path d="M143.132 356.776s7.243 2.379 13.897-4.267c4.852 5.575 15.275 3.866 15.275 3.866M147.549 339.217s3.808 1.287 4.672 6.835M166.408 346.573s2.17-8.707-.306-9.128" stroke="#2150B7" stroke-width="1.35" stroke-linecap="round" stroke-linejoin="round"/><path d="M123.547 314.808c1.038.092 2.05.3 3.036.623 1.644.463 2.346-2.101.704-2.563-2.508-.705-6.723-1.934-7.375 1.576-.366 1.968-.065 4.15.12 6.183l-.145.003c-1.703.038-1.71 2.697 0 2.658l.331-.006.45 7.049c-.048.19-.058.4-.007.63l.1.453c.319 1.448 2.698 1.152 2.603-.352l-.499-7.84c1.14-.026 2.279-.051 3.418-.078 1.703-.038 1.709-2.697 0-2.658l-3.597.081c-.124-1.227-.437-2.74-.204-3.879-.3-.968.055-1.594 1.065-1.88M139.788 327.587c-1.45-2.465-2.817-4.979-4.189-7.487.88-1.832 1.76-3.663 2.641-5.493.738-1.534-1.547-2.884-2.288-1.342-.64 1.33-1.28 2.66-1.918 3.99a166.914 166.914 0 0 0-1.898-3.326c-.867-1.472-3.158-.136-2.288 1.342a195.83 195.83 0 0 1 2.775 4.918c-1.497 3.111-2.992 6.223-4.488 9.335-.738 1.534 1.547 2.884 2.288 1.342l3.765-7.83c1.082 1.976 2.168 3.95 3.312 5.893.865 1.472 3.157.136 2.288-1.342M111.847 321.804c.3-2.532.663-4.925 1.072-6.267.391 1.9.524 3.964.778 5.763.019.135.032.27.05.407l-1.9.097m4.547-.224c-.358-2.853-.495-6.187-1.504-8.84-.232-.609-.644-.907-1.278-.977-2.924-.32-3.585 4.216-3.891 6.287-.192 1.292-.348 2.59-.49 3.89l-.163.008c-1.657.086-1.702 2.614-.115 2.653-.218 2.238-.417 4.477-.67 6.706-.192 1.697 2.46 1.682 2.65 0 .074-.644.291-3.58.62-6.829l2.523-.13c.273 2.261.515 4.526.706 6.798.141 1.693 2.793 1.708 2.65 0a191.503 191.503 0 0 0-.728-7.004c1.227-.457 1.131-2.531-.31-2.562" fill="#2150B7"/></g></g><g><path d="M76.143 4.469c4.867-1.582 9.337-.107 10.919 4.76 1.581 4.867-1.887 10.728-6.754 12.31-4.868 1.58-8.844-1.49-10.425-6.356-1.581-4.867 1.394-9.133 6.26-10.714" fill="#D7F0FF"/><path d="M76.143 4.469c4.867-1.582 9.337-.107 10.919 4.76 1.581 4.867-1.887 10.728-6.754 12.31-4.868 1.58-8.844-1.49-10.425-6.356-1.581-4.867 1.394-9.133 6.26-10.714Z" stroke="#0050B3" stroke-width="1.5" stroke-linecap="round" stroke-linejoin="round"/></g><g><path d="M42.039 297.287s-27.675-2.53-29.372 2.854c-1.6 5.075 7.249 4.337 13.54 4.517 5.619.16 5.33 5.87-3.07 5.523-7.322-.303-23.93-2.187-22.446 4.196 1.431 6.154 26.283 4.218 36.784 4.503 12.194.332 9.372-6.542 6.155-7.239-3.219-.696-10.223-.422-7.17-5.164 2.425-3.765 17.417 1.297 18.982-3.987 1.51-5.1-13.403-5.203-13.403-5.203" fill="#D7F0FF"/><path d="M42.168 297.29s-27.676-2.529-29.372 2.855c-1.599 5.074 7.248 4.337 13.54 4.517 5.618.16 5.329 5.87-3.07 5.522-7.321-.302-23.93-2.187-22.446 4.197 1.43 6.154 26.283 4.217 36.784 4.502 12.193.332 9.372-6.54 6.155-7.238-3.22-.697-10.224-.422-7.17-5.164 2.425-3.765 17.417 1.297 18.983-3.987 1.51-5.1-13.404-5.204-13.404-5.204Z" stroke="#2150B7" stroke-width="1.2" stroke-linecap="round" stroke-linejoin="round"/></g><g><path d="M1371.978 97.997s-6.061-11.534-.465-21.044c5.764-9.794 21.94-11.375 29.031-8.943 10.579 3.627 17.121 12.631 12.87 25.3-5.168 15.398-29.65 10.356-32.35 10.849-2.701.492-14.755 6.65-15.965 5.225-1.21-1.424 9.14-5.012 6.879-11.387Z" stroke="#2150B7" stroke-width="1.2" stroke-linecap="round" stroke-linejoin="round"/><path d="m1380.323 93.293 6.704-19.126s8.552.353 15.853 9.664c0 0 1.86 8.11.01 9.494-1.85 1.385-17.7 4.73-17.7 4.73l-4.867-4.762Z" fill="#D7F0FF"/><path d="m1385.264 98.056-4.433-4.24 17.233-7.207s2.363 5.996 1.306 7.992c-3.81 1.908-14.106 3.455-14.106 3.455" fill="#FFF"/><path d="m1380.831 93.576 5.308-15.428s9.625 2.428 11.978 8.535c-6.808 2.758-17.286 6.893-17.286 6.893" fill="#FFF"/><path d="m1380.323 93.293 6.704-19.126s8.552.353 15.853 9.664c0 0 1.86 8.11.01 9.494-1.85 1.385-17.7 4.73-17.7 4.73l-4.867-4.762Z" stroke="#2150B7" stroke-width="1.2" stroke-linecap="round" stroke-linejoin="round"/><path d="M1380.323 93.576s20.836-8.635 22.525-9.265" stroke="#2150B7" stroke-width="1.2" stroke-linecap="round" stroke-linejoin="round"/><path d="M1399.5 94.557c.022.285.736-3.466-1.252-8.346-3.09-6.152-10.3-7.565-10.3-7.565" stroke="#2150B7" stroke-width="1.2" stroke-linecap="round" stroke-linejoin="round"/></g><g><path d="M1303.393 18.456s2.871-13.979 11.473-16.063c8.601-2.086 17.11.04 25.76-.935-.318 8.333-3.71 15.993-11.494 16.904-7.783.91-25.74.094-25.74.094" fill="#2F74EB"/><path d="M1302.115 26.658c-.48 2.088.51-10.412 3.54-12.348 5.16-3.295 23.098-1.94 26.42-1.94.825 0 .009 10.36-6.644 13.59-6.653 3.23-23.316.698-23.316.698" fill="#FFF"/><path d="M1303.393 18.458s2.206-13.978 10.808-16.063c8.602-2.086 17.77.032 26.42-.943-.317 8.333-3.705 16.002-11.489 16.912-7.784.91-25.74.094-25.74.094Z" stroke="#2150B7" stroke-width="1.05" stroke-linecap="round" stroke-linejoin="round"/><path d="M1302.737 26.505c-.223.502.415-10.2 3.28-12.384 4.438-3.381 20.92-1.274 26.362-2.026.817-.112.032 10.877-5.947 13.59-6.733 3.052-23.695.82-23.695.82Z" stroke="#2150B7" stroke-width="1.05" stroke-linecap="round" stroke-linejoin="round"/></g></g></svg>